<?xml version="1.0" encoding="UTF-8"?>
<svg id="Layer_1" xmlns="http://www.w3.org/2000/svg" version="1.1" xmlns:xlink="http://www.w3.org/1999/xlink" viewBox="0 0 1161.57 1204.28">
  <!-- Generator: Adobe Illustrator 30.5.1, SVG Export Plug-In . SVG Version: 2.1.4 Build 3)  -->
  <defs>
    <style>
      .st0 {
        fill: #dcaf53;
      }

      .st1 {
        fill: #c29238;
      }

      .st2 {
        fill: #66451b;
      }

      .st3 {
        fill: #ddbe72;
      }

      .st4 {
        fill: #debd6e;
      }

      .st5 {
        fill: #a4752b;
      }

      .st6 {
        fill: url(#linear-gradient2);
      }

      .st7 {
        fill: #b58e45;
      }

      .st8 {
        fill: #b88f47;
      }

      .st9 {
        fill: #ddaf53;
      }

      .st10 {
        fill: #e9c86b;
      }

      .st11 {
        fill: #d3b062;
      }

      .st12 {
        fill: #d4b263;
      }

      .st13 {
        fill: #cfab5f;
      }

      .st14 {
        fill: #d5a446;
      }

      .st15 {
        fill: #c49339;
      }

      .st16 {
        fill: #ca9435;
      }

      .st17 {
        fill: #c9a458;
      }

      .st18 {
        fill: #634013;
      }

      .st19 {
        fill: #e4d7a2;
      }

      .st20 {
        fill: #e3e2e1;
      }

      .st21 {
        fill: #deba6c;
      }

      .st22 {
        fill: #fcfcfc;
      }

      .st23 {
        fill: #bc8c35;
      }

      .st24 {
        fill: #765325;
      }

      .st25 {
        fill: #c48d31;
      }

      .st26 {
        fill: #f1e5a0;
      }

      .st27 {
        fill: #c09c57;
      }

      .st28 {
        fill: #efd084;
      }

      .st29 {
        fill: #86642e;
      }

      .st30 {
        fill: #1c1c1a;
      }

      .st31 {
        fill: #e2e1e0;
      }

      .st32 {
        fill: #eeda82;
      }

      .st33 {
        fill: #a07430;
      }

      .st34 {
        fill: #86612a;
      }

      .st35 {
        fill: #a07431;
      }

      .st36 {
        fill: #9c7636;
      }

      .st37 {
        fill: #f1db99;
      }

      .st38 {
        fill: #fdfac7;
      }

      .st39 {
        fill: #dcba5f;
      }

      .st40 {
        fill: #ead895;
      }

      .st41 {
        fill: #bb8c35;
      }

      .st42 {
        fill: #62441f;
      }

      .st43 {
        fill: #c09449;
      }

      .st44 {
        fill: #ac8031;
      }

      .st45 {
        fill: #eee4aa;
      }

      .st46 {
        fill: #704f1c;
      }

      .st47 {
        fill: #6d4a18;
      }

      .st48 {
        fill: #714b19;
      }

      .st49 {
        fill: #bd9449;
      }

      .st50 {
        fill: #ba8e46;
      }

      .st51 {
        fill: #946e2f;
      }

      .st52 {
        fill: #664c25;
      }

      .st53 {
        fill: #9b732a;
      }

      .st54 {
        fill: #734d1b;
      }

      .st55 {
        fill: url(#linear-gradient1);
      }

      .st56 {
        fill: #f5e4a4;
      }

      .st57 {
        fill: #a4895a;
      }

      .st58 {
        fill: #bd9e49;
      }

      .st59 {
        fill: #cc983a;
      }

      .st60 {
        fill: #e3d7a0;
      }

      .st61 {
        fill: #ae8640;
      }

      .st62 {
        fill: #d6a749;
      }

      .st63 {
        fill: #e4e2e1;
      }

      .st64 {
        fill: #cb9537;
      }

      .st65 {
        fill: #c49642;
      }

      .st66 {
        fill: #6f4d19;
      }

      .st67 {
        fill: #ba8a33;
      }

      .st68 {
        fill: #b19a62;
      }

      .st69 {
        fill: #ac843a;
      }

      .st70 {
        fill: #ba8730;
      }

      .st71 {
        fill: #d3ae5c;
      }

      .st72 {
        fill: #ddaf49;
      }

      .st73 {
        fill: #ba8f43;
      }

      .st74 {
        fill: #6e481b;
      }

      .st75 {
        fill: #eadea0;
      }

      .st76 {
        fill: #8a6329;
      }

      .st77 {
        fill: #4f3412;
      }

      .st78 {
        fill: #664a23;
      }

      .st79 {
        fill: #dbbb6e;
      }

      .st80 {
        fill: #b7924c;
      }

      .st81 {
        fill: #efefee;
      }

      .st82 {
        fill: #b48233;
      }

      .st83 {
        fill: #87632d;
      }

      .st84 {
        fill: #b0873a;
      }

      .st85 {
        fill: #c39135;
      }

      .st86 {
        fill: #ead392;
      }

      .st87 {
        fill: #dcba6e;
      }

      .st88 {
        fill: #bf9b52;
      }

      .st89 {
        fill: #d9b86b;
      }

      .st90 {
        fill: #c6a85c;
      }

      .st91 {
        fill: #a57f3c;
      }

      .st92 {
        fill: #efdb96;
      }

      .st93 {
        fill: #6f5125;
      }

      .st94 {
        fill: #cbad5f;
      }

      .st95 {
        fill: #fcf9c7;
      }

      .st96 {
        fill: #b38d47;
      }

      .st97 {
        fill: #debc6d;
      }

      .st98 {
        fill: #af7e2f;
      }

      .st99 {
        fill: #6d471a;
      }

      .st100 {
        fill: #f7d37e;
      }

      .st101 {
        fill: #d4b265;
      }

      .st102 {
        fill: #f6e092;
      }

      .st103 {
        fill: #c2953d;
      }

      .st104 {
        fill: #d6b667;
      }

      .st105 {
        fill: #664416;
      }

      .st106 {
        fill: #fbd978;
      }

      .st107 {
        fill: #d7d6d6;
      }

      .st108 {
        fill: #efd989;
      }

      .st109 {
        fill: #99722a;
      }

      .st110 {
        fill: #4d2d07;
      }

      .st111 {
        fill: #51300b;
      }

      .st112 {
        fill: #cececd;
      }

      .st113 {
        fill: #996f2c;
      }

      .st114 {
        fill: #482e12;
      }

      .st115 {
        fill: #c4a055;
      }

      .st116 {
        fill: #f9f4bf;
      }

      .st117 {
        fill: #ab8339;
      }

      .st118 {
        fill: #e5e5e4;
      }

      .st119 {
        fill: #af7926;
      }

      .st120 {
        fill: #fdfac8;
      }

      .st121 {
        fill: #472709;
      }

      .st122 {
        fill: #f0e2a6;
      }

      .st123 {
        fill: #1b1b1b;
      }

      .st124 {
        fill: #c29b51;
      }

      .st125 {
        fill: #cca85d;
      }

      .st126 {
        fill: #4a3014;
      }

      .st127 {
        fill: #d4d4d3;
      }

      .st128 {
        fill: #724f1f;
      }

      .st129 {
        fill: #bc964c;
      }

      .st130 {
        fill: #9f6f28;
      }

      .st131 {
        fill: #d7bf7b;
      }

      .st132 {
        fill: #e4c679;
      }

      .st133 {
        fill: #9a6e2a;
      }

      .st134 {
        fill: #fdefbe;
      }

      .st135 {
        fill: #b98f40;
      }

      .st136 {
        fill: #ddbc6a;
      }

      .st137 {
        fill: #c5a254;
      }

      .st138 {
        fill: #ae853f;
      }

      .st139 {
        fill: #e3e3e2;
      }

      .st140 {
        fill: #60441c;
      }

      .st141 {
        fill: #845f2c;
      }

      .st142 {
        fill: #c79b49;
      }

      .st143 {
        fill: #906a2d;
      }

      .st144 {
        fill: #fde691;
      }

      .st145 {
        fill: #d09d3f;
      }

      .st146 {
        fill: #96692c;
      }

      .st147 {
        fill: #dcba6c;
      }

      .st148 {
        fill: #e2c171;
      }

      .st149 {
        fill: #d3d2d2;
      }

      .st150 {
        fill: #dbae4e;
      }

      .st151 {
        fill: #ba8b34;
      }

      .st152 {
        fill: #1a1a18;
      }

      .st153 {
        fill: #e8db9d;
      }

      .st154 {
        fill: #f7e291;
      }

      .st155 {
        fill: #cda759;
      }

      .st156 {
        fill: #e0b659;
      }

      .st157 {
        fill: #dbb96a;
      }

      .st158 {
        fill: #b4883b;
      }

      .st159 {
        fill: #eedb9b;
      }

      .st160 {
        fill: #d29f3f;
      }

      .st161 {
        fill: #e2e1df;
      }

      .st162 {
        fill: #f0e49d;
      }

      .st163 {
        fill: #ae7a27;
      }

      .st164 {
        fill: #fdf0be;
      }

      .st165 {
        fill: #eaeaea;
      }

      .st166 {
        fill: #e2c173;
      }

      .st167 {
        fill: #d3d3d2;
      }

      .st168 {
        fill: #f2e196;
      }

      .st169 {
        fill: url(#linear-gradient);
      }

      .st170 {
        fill: #513002;
      }

      .st171 {
        fill: #d1d1d1;
      }

      .st172 {
        fill: #ebd078;
      }

      .st173 {
        fill: #e4c478;
      }

      .st174 {
        fill: #c5953b;
      }

      .st175 {
        fill: #936e31;
      }

      .st176 {
        fill: #ca9f43;
      }

      .st177 {
        fill: #f7f8f7;
      }

      .st178 {
        fill: #ddbc6d;
      }

      .st179 {
        fill: #fdfdfd;
      }

      .st180 {
        fill: #1d1d1a;
      }

      .st181 {
        fill: #e0c471;
      }
    </style>
    <linearGradient id="linear-gradient" x1="362.48" y1="2339.77" x2="181.61" y2="2383.14" gradientTransform="translate(-87 -1587)" gradientUnits="userSpaceOnUse">
      <stop offset="0" stop-color="#dedddc"/>
      <stop offset=".15" stop-color="#e3e2e0"/>
      <stop offset=".4" stop-color="#d1d0cf"/>
      <stop offset=".63" stop-color="#e5e4e3"/>
      <stop offset="1" stop-color="#cececd"/>
    </linearGradient>
    <linearGradient id="linear-gradient1" x1="477.21" y1="2330" x2="370.1" y2="2392.48" gradientTransform="translate(-87 -1587)" gradientUnits="userSpaceOnUse">
      <stop offset="0" stop-color="#e0dfde"/>
      <stop offset=".35" stop-color="#e4e3e1"/>
      <stop offset="1" stop-color="#cccac9"/>
    </linearGradient>
    <linearGradient id="linear-gradient2" x1="945.6" y1="2358.99" x2="893.85" y2="2364.07" gradientTransform="translate(-87 -1587)" gradientUnits="userSpaceOnUse">
      <stop offset="0" stop-color="#dedddb"/>
      <stop offset=".35" stop-color="#e1e0de"/>
      <stop offset="1" stop-color="#c5c4c3"/>
    </linearGradient>
  </defs>
  <path class="st123" d="M1012.39,1004.92c-160.3,181.67-411.45,250.48-638.75,159.08-55.14-22.17-106.02-52.5-152.12-89.86-72.62-58.86-130.89-133.22-169.36-218.52-20.13-44.61-33.89-91.41-42.45-139.72-12.62-71.18-12.84-143.67-1.25-215.02C30.63,364.35,100.19,239.53,203.01,147.57,339.83,25.19,526.45-27.89,706.38,14.31c96.46,22.62,185.29,69.85,258.19,136.83,66.52,61.11,118.91,136.32,152.74,220.1,30.43,75.35,44.73,155.6,44.25,236.77-.87,146.6-52.23,287.04-149.17,396.91Z"/>
  <path class="st163" d="M115.01,936.44l3.7,3.02c104.27,146.35,267.31,243.17,448.52,247.92,181.64,4.77,349.34-82.66,459.64-225.12l3.55-2.49c4.13-3.09,5.53-2.63,4.2,1.37-36.16,48.59-79.54,91.08-129.17,126.89-39.38,28.41-82.43,51.6-127.61,69.15-129.5,50.32-273.42,49.06-401.96-3.55-106.76-43.69-199.32-119.8-264.15-214.45-1.79-5.18-1.23-6.62,3.28-2.75Z"/>
  <path class="st10" d="M938.93,144.14c1.21,2.29,1.77,4.47-1.33,4.47-2.77-1.06-5.56-2.21-7.94-4.01-29.69-22.4-56.57-42.37-89.5-60.27C697.66,6.86,534.9-4.03,384.1,55.88c-35.63,14.15-65.09,31.18-97.84,50.52-2.54,1.5-5.41,2.31-8.26,3.04l-2.97.34-13.83,9.61c-1.77.2-1.81.12-1.84-2.18C412.89,7.34,606.93-21.05,783.87,50.85c56.31,22.88,108.84,54.46,155.05,93.29Z"/>
  <path class="st64" d="M1124.95,424.78c9.05,30.08,15.97,60.65,20.28,92.55,8.84,65.4,7.58,131.54-3.91,196.44-15.98,90.25-52.4,174.43-106.7,247.38-.62-.64-1.16-1.41-1.57-2.28l-1.42,1.46c-.24.24-.82.72-1.21-.55l1.58-4.36c88.27-121.45,125.58-271.96,108.96-421.14-4.04-36.3-11.96-68.35-20.69-103.53-.79-3.2-.89-6.51-.86-9.79.2-1.91-.07-3.81-.8-5.69.2-.58.46-1.05.85-1.19,1.97-.68,4.71,9.73,4.74,11.83.01.96-.86-.64.76-1.13Z"/>
  <path class="st160" d="M26.64,487.99c2.91.34,2.1,3.48-.75,3.47-1.6.84-1.9,5.44-1.24,7.66.44,3.26.79,6.57.41,9.85-4.38,37.81-8.11,72.25-7.23,110.57,1.69,73.12,15.5,146.08,43.44,213.64,14.26,34.48,31.27,62.98,50.36,94.67,1.6,2.65,2.54,5.62,3.37,8.59-1.28.27-2.06-.5-3.34-.99.3,1.94.7,2.9.06,3.73-45.32-66.16-75.9-140.6-90.26-220.14-13.77-76.32-13.74-154.57.55-230.32,1.54-.45.94,2.91.94,2.74.08-2.1,1.62-14.08,2.58-14.34,1.19-.32,1.92.53,1.93,1.72-.65,3.15-.93,6.2-.83,9.15Z"/>
  <path class="st156" d="M278,109.44c-1.85,2.42-3.81,4.82-6.26,6.67-30.49,23-57.72,43.83-84.7,71.29-52.29,53.23-94.77,116.78-123.66,185.65-14.97,35.67-23.59,69.04-32.96,106.24-.78,3.09-2.24,5.94-3.78,8.7-2.65-1.6,1.39-5.92-.62-10.01l-2.8,14.18c-1.13-1.3-.73-2.54-1.2-3.44,28.11-149,114.43-283.21,237.35-371.52.53.44,1.54.96,2.43.26,5.08-3.98,10.03-7.36,15.35-10.67.05,1.42.15,1.96.85,2.64Z"/>
  <path class="st150" d="M1124.95,424.78c-.27.52.11,1.54-1,2.36-1.45-4.03-1.17-8.5-4.18-12.04-.14,2.2,1.45,4.46-.36,5.86l-2.6-3.76c-34.6-102.62-95.18-193.47-176.73-264.75l-2.47-3.84c.99-.93.59-2.26-1.1-2.93l2.43-1.54c87.21,73.28,153.2,171.54,186.02,280.64Z"/>
  <path class="st123" d="M937.6,148.6c84.97,71.43,148.3,166.31,181.8,272.35,34.74,111.94,36.41,234.23,4.98,347.95-19.19,69.4-51.24,133.78-93.96,190.86-100.7,134.52-256.93,222.75-426.73,229.37-120.97,4.72-234.23-29.71-333.48-97.61-61.22-41.88-113.67-94.43-155.19-155.1-42.49-62.08-72.13-131.53-86.93-206-15.18-76.35-16.57-155.06-3.42-231.33-.73-2.41-.41-5.8,1.24-7.66l.75-3.47c10.49-54.75,28.82-108.16,54.73-158.07,46.25-89.11,113.62-164.99,196.63-220.49C406.54,23.5,565.02-7.08,715.96,32.78c81.89,21.62,157.55,61.62,221.63,115.82Z"/>
  <path class="st156" d="M25.89,491.46c-.55,2.55-.81,5.17-1.24,7.66-.98-.18-1.3-1.58-1.09-2.89l1.19-7.26c1.34.64,1.01,1.69,1.13,2.5Z"/>
  <path class="st169" d="M141.65,699.1c-.76,22.8-1.03,45.72-.81,68.75l87.73.27.62-1.25-.36-70.6c-.13-9.74-7.15-15.45-16.83-18.38l58.99.1c-9.66,2.95-16.78,8.99-16.78,19.34l.03,154.6c0,10.46,7.81,16.05,16.83,18.92l-58.97-.04c9.66-2.69,16.63-9.01,16.74-18.98l.28-77.46c-.39,1.3-.71.9-.98-.75-28.67-.3-57.27-.18-85.8.35-.25.27-.44,1.01-1.46,1.03-.23,20.11-.02,40.15.64,60.12,0,2.11.58,5.54-.15,7.72-1.37,4.05-.06,6.6.42,10.14,1.31,9.48,6.93,14.94,16.4,17.97l-58.37-.15c10.33-3.23,15.25-9.19,16.56-19.21l-.17-154.85c-.01-10.31-7.2-15.83-16.61-18.85l58.79-.22c-5.32,3.1-10.03,3.43-13.01,8.35-2.36,3.89-3.73,8.66-3.74,13.07Z"/>
  <path class="st55" d="M324.06,851.03l-.03-154.61c0-9.81-8.22-15.79-17.12-18.51l59.06.11c-9.83,2.83-16.85,8.77-16.86,19.25l-.05,153.82c0,10.51,6.89,16.98,16.9,19.75h-58.86c8.98-2.73,16.95-8.92,16.95-19.8Z"/>
  <path class="st79" d="M663.58,297.09l.1-1,42.82.49c1.39-.45,2.45-.28,3.19.5.41.22.86,1.13.86,2.13l.03,90.87c.01.89-.23.86-.69,0l-.73-.18c.33,3.35.08,6.34-.74,8.97-.41,2.09-1.34,3.79-2.8,5.09l-.06,70.9-2,1.22c.81,10.1.9,21.08-.01,31.01-.59,14.5-.76,29.12-.52,43.85,2.81,1.74.99,3.6-1.25,5.17-3.94,2.75-11.74-.14-7.79-4.16.57-1.88,1.37-1.81,1.6.14,1.27-1.28,1.57-.73,1,1,1.76,1.23,3.65-.28,3.97-2.2l.02-134.1,1-.7c-.56-.06-1-.11-1-.17-.33-34.74-.32-70.44,0-105.2,0-.23.43-.46.98-.69-1.28-.16-2.12-.89-2.52-2.18-1.39.39-2.54.15-3.45-.72l-1.08,1.1c-.27,19.35-.6,39.68-.96,61-1.51,6.24-2.44,12.63-2.78,19.17l-.57,73.83c-1.37,8.28-1.86,16.68-1.46,25.19l-.74.68-1.34-.3c-.39-19.01-.77-38.85-.34-58.04,0-.24.56-.46,1.28-.69-.53-40.21-.6-80.54-.22-120.96-2.32-.2-4.28.23-5.89,1.29l-1.67-1.75c.29,35.69.05,71.19-.73,106.5l-2.02-.62-.4-15.47-.11,52.81-2,1.19c.52,16.57.76,33.34.7,50.33l1.19,3.64-.3,46.59c-3.99,6.43-11.13,6.55-13.49-1.55l-.16-104.71c.36,31.05,0,61.88-1.11,92.47,3.02,7.23-.69,24.02-10.1,17.22-1.43-1.04-1.43-3.17.27-3.98l1,1c-.2-2.06.66-2.24,2.57-.56l1.15-.02c-.17-1.51.59-1.65,2.28-.42-.13-27.97-.32-56.22-.59-84.76l-1.41-1.83v-26.33l1-1.91v-128.21s1-1.92,1-1.92c-2.33-.38-4.66-.08-7,.9h0c-.34,8.13-.67,16.48-1.01,25.06-.66,17.43-.92,34.96-.78,52.57l-2.07.21c.22,7.19-.29,14.23-1.51,21.13-3.1,1.81-4.65,2.72-4.65,2.72-41,.52-82.06.65-123.18.37-2.2.09-3.01-.99-1.79-2.97-.15-.98.03-1.02.7-1.02l121.58-.04c4.68.66,1.93,1.77.29.2-.14-.13.06-.61.35-1.19,1.05,0,2.38-.63,4.04-1.27l-.2-106.51,20.22-.18Z"/>
  <path class="st6" d="M846.19,697.35c-.39,51.05-.25,101.95.41,152.69,0,10.47,5.7,17.91,16.67,20.82l-59.16-.08c9.94-2.88,16.97-9.12,16.97-19.71l.05-153.95c0-10.4-7.42-16.35-17.1-19.1l59.35-.17c-9.63,2.99-17.15,9.48-17.2,19.5Z"/>
  <path class="st161" d="M531.41,815.16l-2.14.48c-4.46-6.22-9.06-12.2-13.81-17.94-3.64,5.61-10.08,8.05-16.61,7.03,2.05,3.71,4.48,7.59,7.29,11.65.99,2.25,1.03,3.76-1.67,3.99l-79.38-117.71.25,108.31-.04,23.13c-.02,9.38,1.14,18.58,4.05,27.06-2.89.36-4.83-1.8-5.82-6.48-.74-7.45-1.69-7.1-2.88,1.04-1.88,4.56-5.45,10.52-5.25,3.23,2.93-7.65,3.97-16.02,3.96-25.09l-.11-126.41c0-6.22-1.35-11.97-3.72-17.26-3.08-6.86-8.83-9.21-16.09-12.2l40.54-.45,85.42,127.49c2.49,3.71,4.94,6.36,5.98,10.14Z"/>
  <path class="st161" d="M926.65,817.88c1.52,4.19-.54,4.66-3.41,1.04-2.77-6.26-4.83-12.75-6.19-19.47l-2.11,1.47c-4.31-2.68-7.9-1.41-10.77,3.8l-3.09,1.43c5.33,19.32,18.01,36.01,34.29,47.48l1.07,3.11c2.17,1.54,1.47,2.27-1.03,1.33-16.61-10.62-29.38-26.26-36.34-45.49-14.88-41.08-3.71-89.54,31.54-116.43,31.15-23.76,72.22-27.54,107.97-12.06,4.61,2,9.88,3.45,14.22,1.25s4.01-7.23,8-10.61l-.79,60.45c-5.49-19.84-14.93-36.03-32.93-44.64-24.44-11.7-53.91-8.9-75.64,7.38-14.81,11.09-23.81,26.66-28.83,44.36-6.36,22.41-5.21,55.55,4.02,75.61Z"/>
  <path class="st3" d="M516.87,405.06c.73,1.17-.09,1.53-1.3,1.05-1.65,1.59-2.73,1.12-3.21-1.08l-.83-26.52-1.81-.27c-.31-21.11-.72-42.16-1.23-63.16l-.57-7.29c-.68,2.43-2.02,1.84-3.55.19-1.7,1.26-3.1,1.21-4.19-.14-.19,42.54-.55,84.97-1.09,127.29l-2-.67-.22-30.3,1.3-1.13-.16-60.47.17,61.99-1.3,1.84.2,35.38-1.99,1.23c.21,17.46.04,34.82-.51,52.08-.81,3.97-.81,8.03,0,12,.84,1,.74,3.79,0,5-.65,9.68-.93,19.46-.84,29.33l-.85.65c-.67-.05-1.19-.11-1.19-.17-.44-32.73-.42-66.37-.14-99.11,0-.23.44-.46,1.01-.69-.57-.06-1.01-.11-1.01-.18-.33-42.53-.04-86.15.43-128.75.06-1.26-1.49-5.54-2.42-5.61-.81-.07-2.33,3.77-2.34,4.46.42,42.8.58,86.62.37,129.38,0,.23-.44.47-1.01.7.57.06,1.01.12,1.01.18.29,36.16.3,73.35-.14,109.52,0,.24-.53.46-1.2.69-2.79.15-4.01-2.31-3.67-7.38v-45.28c1.54-10.17,2.07-20.44,1.58-30.82l-2-.69v-14.98s-.71,40.51-.71,40.51c-1.49,9.07-2.03,18.25-1.64,27.54l-.87.67-2-.68c.23-70.17.41-140.38.56-210.62l.84-2.65c-1.72.03-3.59-.27-5.61-.91.06,1.95-.72,1.89-1.17-.08-.3,16.37-.63,32.71-.99,49-.46,11.17-.83,22.41-1.11,33.71l-1.83.72.34,64.24-1.89,1.23c-.08,14.65.05,29.38.4,44.2.72.39,1.28.79,1.29,1.2.14,6.07.56,49.43-1.11,52.25-2.63,4.43-11.88,4.97-9.09-.61-.01-1.93.95-1.95,2.89-.04,1.08-.63,2.06-.96,2.92-.99-.59-42.04-.79-86.03.23-127.9-.65-37.33-.83-75.02-.55-113.08-1.08-1.15-1.61-2.2-1.58-3.15-1.65.4-2.94.08-3.9-.95-.05,1.74-.71,2.16-2.13,1.17-.5,16.17-.6,32.42-.29,48.73-.53,3.33-4.28,1.21-4.58-1.71-.86-17.77-.85-37.46,0-55.45l1.91-1.4c21.16-.1,42.27-.13,63.35-.06l-.31,99.82c0,2.78.15,5.17,1.33,7.06Z"/>
  <path class="st31" d="M704.16,773.82c1.24,4.03-.81,7.32-6.13,9.86l-10.15,5.29,3.47,7.59-1.35,1.84-66.92-96.75c.25,32.06.08,64-.51,95.82-1.56,15.38-2.05,30.79-1.46,46.25-.18,2.08-1.34,2.96-2.93,1.6l.33-9.55-.12-29.78-.25-92.81c-.02-6.7-.38-13.1-2.33-19.19-2.28-8.7-8.43-12.91-17.34-15.91l40.18-.56,65.5,96.3Z"/>
  <path class="st171" d="M1076.74,782.22c-6.56,2.86-10.48,8.8-11.07,15.91l-1.42,1.28c.03,21.21-.16,42.44-.57,63.68l-1.4.26c-2.96-4.06-6.64-8.79-12.53-7.83-4.14.67-7.75,3.62-11.03,5.47-21.14,10.3-42.67,14-66.3,10.14-12.34-2.02-26.58-6.4-35.96-14.39-17.37-11.12-33.19-31.08-37.97-52.85,6.49,1.24,4.68-4.15,10.25-6.24,2.04-.76,3.76-.11,5.94,1.7,1.12-1.4,1.52-2.72,3.46-3.87,2.3,8.68,3.69,17.11,8.02,24.62.7-.9.52-1.73.51-2.22,6.45,14.01,16.15,24.56,27.54,34.53,13.47,9.46,29.57,12.65,45.53,11.99,12.93-.53,34.42-6.11,42.14-17.16,1.46-2.09.87-45.78-.23-51-1.03-4.88-2.42-7.51-5.84-11.37-1.66-.08-6.49-2.88-4.32-4.15,15.05-.13,30.06-.02,45.02.35l.25,1.17Z"/>
  <path class="st115" d="M515.57,406.11c1.18-.99,1.76-.47,1.03,1-.05.37.29.97,1.14.97l119.79.08c3.04,0,7.62-.81,7.71-4.13l.69-25.59,3.14,6.9.51-50.26c.01-1.14.29-1.84,1-1.98.88,19.93.86,41.86,0,62.01-.39,33.26-.53,66.65-.42,100.15l-2.57.41c.43,22.6.19,45.01-.73,67.23-1.21.48-2.31.56-3.29.24l-.15-138.94c-3.5.67-4.87-1.53-1.36-2.9l-125.65.16.25.66c1.54,1.72,1.59,2.56-.62,3.3.3,20.29.16,40.54-.4,60.76l-.07,76.93c-.72.49-1.58.41-2.59-.26-1.46-22.74-1.92-45.83-1.38-69.27-1.55-.43-2.34-1.19-2.38-2.26l-.19-92.27c-.97-27.64-1.16-55.63-.55-83.97.49-.04,1.06.34,1.06,1.1l.16,60.94c2.94-2.11,2.1-5.3,3.54-8.12l1.03,35.63c.03.89.79,1.27,1.28,1.48Z"/>
  <path class="st61" d="M515.58,297.11c-.02.28.15.81.26,1.07-21.44,3.21-43.27-.6-65.26,1.46l-.44-.51c.21,56.47.02,112.79-.57,168.95.71.81,1.05.81,1.02.01-.87.1-.7-1.57.03-2.1l1.94-1.85.13-50.92c1.08-2.8,2.76-3.67,3.06-.75l.09,136.53c.95.39,1.52,1.73,1.73,4.04.43,1.43,2.19,2.39,3.41,2.12s4.14-1.76,4.45-3.61l.65-95.55,1.89.37.11-24.15,2.01-1.18.76.17.29,120.63c2.14,3.22,4.5,3.53,7.65,1.24.04-3.29.3-6.62.77-9.98.15-14.57.33-29.29.53-44.17,1.82-9.25,2.5-18.77,2.04-28.55l2.03-1.38.4,73.07c0,3.74-.07,7.81,1.69,10.42l.89-1.23c1.27,1.82,3.08,2.1,5.44.86l.38-1.39c.71-12.35,1.26-25.23,1.63-38.63v-5c-.82-3.92-.82-8.07,0-12l.51-52.08c1.14.26,2.32.19,3.55-.23.07,27.87.39,55.64.99,83.31.42,8.52.67,17.19.74,26.01.83,2.17,3.15,3,5.25,2.02-2.17-1.88-.43-3.43,1.98-1.99.38-51.16.86-102.18,1.44-153.08l.64,91.76c.93.38,1.86.38,2.81.1l.25-31.87c.29-.09.8.22.8.54l.18,88.37c0,3.85,1.82,7.15.7,11.32-.37,1.36.4,3.21,1.16,3.82l.48.86-.31,1.33c-21.84.28-43.73.36-65.66.25l-1.2-1.53-.31-265.67c0-1,.58-1.28.96-1.35.1-.54.2-.95.31-.95,21.51-.3,43.52-.31,65.05.04.23,0,.46.45.68,1.02Z"/>
  <path class="st138" d="M674.58,452.07c1.94-1.91,3.59-2.57,4.93-1.98.81,33.64,1.08,67.62.79,101.92l1.24,2.19c3.52.75,5.45.56,6.44-3.22l.99-84.89c.32-4.3,1.85-6.3,4.6-6.02.87.96.71,3.72-.06,5.01.58.1,1.03.2,1.03.3.42,28.39.42,57.45.23,85.86,0,.23-.35.46-.8.69.01,2.56,3.1,3.7,5.03,3.24,1.47-.36,3.99-1.98,4.02-4.24-.24-14.69-.07-29.31.52-43.85v-31.01c1.4-1.14,2.6-1.08,2.89.64l-.12,35.94,1.95-.58c.44-3.02.93-6.02,1.47-9-.41-.06-.73-.11-.73-.18-.48-36.99-.33-75.13.15-112.14,0-.23.32-.46.73-.69h.69s.52,173.85.52,173.85c.09.87-.17,1.55-.92,1.55-21.56.03-43.45-.04-65.02-.11-.74,0-1.08-.58-1.2-1.44l-.38-.8c1.12-.38,2.03-1.3,2.03-3.08l-.02-87.84c4.47,1.82.1,12.84,2.94,21.23.04.13.29.67.99.73l.08-97.94c0-.83.6-1.18.98-1.13.77,52,1.11,104.33,1,156.99l1.03,2.59c.49.71,2.83.91,4.01.36,3.74-1.74,4.43-6.58,3.49-10.31-1.65-6.51.14-12.63.16-19.28l.45-139.44c.3-.07.84.28.84.57l.15,47.66c2.37-3.53,2.32-7.31,1.04-11.46l.58-4.57c-.53-4.25-2.58-9.45,1.16-13.52l.12,145.22c0,3.33,1.96,5.29,4.33,5.35,1.56.04,5.32-1.39,5.45-3.73l.2-99.45Z"/>
  <path class="st136" d="M877.71,486.1c-2.07,2.71-2.63.5-3.19-2.08,4-25,6.38-51.47,4.95-76.88-.04-.76-.37-4.18-.58-4.19-.52-.03-1.04.12-1.57.32,1.38,33.66.2,72.54-11.27,104.75-.31.87-.86,1.67-1.46,2.45s-1.36,1.53-2.13,2.23c.49,1.67.72,3.39.39,5.11-1.98,10.34-10.26,27.7-15.13,37.63-3.21,6.54-12.29,24.95-17.47,27.95-.77.45-1.61.77-2.47,1.05,24.78-39.51,40.5-84.23,44.98-131.24.51-5.36,1.62-9.91.4-15.23,2.72-7.07.91-13.56.69-20.92-2.29-76.24-35.58-148.13-93.12-197.41,1.97-2.71,3.37-5.06,5.81-6.94,57.39,48.3,92.03,119.84,96.74,194.32l-.15,39.61c-.05,13.67-2.77,26.56-5.41,39.46Z"/>
  <path class="st127" d="M738.21,870.23l-48.21-71.83c-1.55-3.13-2.74-7.66-5.81-11.14,4.48.38,6.14-1.9,9.1-3.37,4.79-2.38,9.17-4.54,10.86-10.07l34.86,50.78c.98-2.19,1.65-4.49,2.02-6.9l.11-73.39c1.03-.79,2.11-.4,2.77.62l.31,124.99c-1.06,1.35-3.06,1.45-6.01.3Z"/>
  <path class="st148" d="M283.62,408.14c-.39,3.63-.74,7.28-1.03,10.96l.2,24.92c.03,3.28,1.27,6.07.82,9.15.75,3.31.48,5.27-.83,5.89-1.28-.27-.58-2.65-.18-3.96l-2.11-1.4c-3.33-31.29-.92-63.29,7.08-94.57l-1.62-.4c-9.05,30.62-10.12,63.15-7.96,94.65-1.43.45-1.91,1.42-1.84,2.81.65,1.89,1.56,3.82,2.74,5.78,1.25,3.86.92,6.55-1,8.08-.13,1.79-.18,2.51-1.57,1.1l-2.43-20.3-.29-17.74c-.84-4.25-.8-8.73,0-12.99l.35-16.86c6.71-72.73,40.47-143.73,97.58-190.56,2.36,1.97,3.68,4.04,5.27,6.65l-9.84,9.22c-43.07,40.36-69.81,93.85-80.12,151.69-1.72,9.65-3.24,18.44-3.22,27.9Z"/>
  <path class="st149" d="M531.41,815.16c3.36,2.78,5.12,6.68,7.99,10.06l.95.59c-.35-3.37-.88-22.44.54-23.44,1.32-.93,3.27,1.72,3.01,3.62l.32,64.24-3.45.47c-4.13-3.56-7.62-8.04-10.46-13.45.52.63.2.62-.96,0l-24.87-36.88c2.13-4.04-7.75-11.34-9.67-18.78,9.09,3.51,17.47.07,20.48-7.97l16.12,21.55Z"/>
  <path class="st35" d="M537,609.68c1.53,3.7.27,8.74.49,13.19l-110.65-.02-.13-11.74c-.02-1.87.96-2.5,1.93-3.26,34.89-.38,70.11-.25,105.68.4l2.67,1.43Z"/>
  <path class="st33" d="M730.92,609.33c1.92,3.74.55,8.13.79,13.45l-109.99.06-.24-10.86c-.03-1.45.39-2.49,1.09-3.24l7.91-1,94.6-.15,5.84,1.74Z"/>
  <path class="st25" d="M602.47,146.38c-.57,1.06-2.43,2.22-3.48,2.83-.07,2.08-.33,2.49-.8,1.24l8,28.67-.75.91-24.94-16.07-24.83,16.05-.97-.81c3.07-10.13,5.5-19.49,7.28-28.09l-.37-2.08c-1.81-.85-4.32-2.14-4.84-4.13l-4.59-4.64,2.31-1.9c4.59.39,9.19.54,13.8.43,5.42,2.36,10.5,3.24,15.23,2.65,7.36-4.4,13.96-4.85,19.8-1.37,3.99.24,3.7,2.34-.86,6.32Z"/>
  <path class="st9" d="M621.52,131.23l-19.04,15.15c.89-1.67,1.35-2.32,3.24-4.35-3.25,1.22-5.27-2.1-7.14-2.39-5.91-.91-10.87,2.86-16.13,4.22-6.59,1.71-10.9-4.85-20.11-2.9l-9.07-.68c1.5,1.66,3.04,2.77,3.52,4.62l-19.21-14.98c10.82-.28,21.52-1.12,32.11-2.51l10.16-27.95,1.2.44,10.71,28.12,26.48,1.38c2.09-.06,3.19.55,3.28,1.83Z"/>
  <path class="st139" d="M529.35,857.24c.03-1.06.98-1.39,1.5-.58l6.69,10.48c1.33,2.09,3.39,3.88,6.06,2.63l-.26-59.35c0-2.22.03-4.78-1.78-7.28-.93,7.9-1.77,15.4-.16,23.07-.66.62-1.86,1-2.2.96-.31-.04-.8-.43-.32-1.01.2-.24.34-.47.52-.92l-.12-111.04c-.03-7.91-1.18-15.11-3.52-22.21-2.63-7.99-8.61-11.21-17.08-14l46.62-.04c-8.51,2.84-14.39,5.82-17.02,13.97-2.28,7.04-3.24,14.51-3.26,22.28l-.21,93.87.03,62.78c-.86.18-5.12,1.39-6.44-.51l-9.06-13.08Z"/>
  <path class="st118" d="M738.21,870.23c1.3-.87,2.5-.47,5.16.19l-.29-49.8-.63-75.03c0-.33-.42-.63-.76-.56l-.22,72.99c0,2.9-.81,5.18-.11,8.17-.63-.82-1-2.16-2.35-1.58l.57-5.48c.85-35.08.89-71.94-.05-107.02,0-6.54-1.07-13.3-3.12-19.83-2.58-8.22-8.94-11.39-17.46-14.32l47.26-.03c-8.4,2.68-14.86,6.08-17.53,14.4-1.98,6.19-3.32,12.87-3.32,19.9v113.8s-.3,44.95-.3,44.95c-1.61,1.51-5.55,1.21-6.86-.74Z"/>
  <path class="st166" d="M733.61,234.46l-.35,9.05-5.84,1.97-100.61-.32s-1.74-.67-5.22-2.02c-.58-2.92-.73-6.06-.43-9.44,37.23-.08,74.49-.06,111.77.07l.69.68Z"/>
  <path class="st173" d="M538.64,242.1c.07.27.12.9-.03,1.23l-5.8,1.99c-33.73-.09-67.45-.12-101.14-.09-1.93-.25-3.29-.92-4.09-2-1.76-2.2-1.31-7.41-.23-10.04l110.05-.07c.5,2.78.91,5.77,1.23,8.99Z"/>
  <path class="st113" d="M519.53,588.49c.75,2.15.14,3.18-1.82,3.09l-72.94.02,1.11-4.47c.21-2.6,1.62-6.51,1.02-10.07l22.23.51c8.34.19,16.09.12,24.46.5l12.94.59c3.52-1.67,7.07-1.77,11.3-1.74-.03,4.52.44,8.01,1.7,11.57Z"/>
  <path class="st133" d="M712.4,584.12c-.26,2.05.23,4.52,1.45,7.4-24.99-.12-49.91-.15-74.77-.07,2.29-3.76,3.09-7.56,2.4-11.37-.1-.99-.59-2.81.65-3.19.72-.22,2.63-.23,3.39-.06,8.05,1.86,15.14.68,23.03.57l43.26-.59.58,7.31Z"/>
  <path class="st142" d="M877.71,486.1c-5.88,28.68-16.14,56.32-30.2,82.24-2.59.87-2.99-.87-2.22-3.29,8.53-14.98,14.92-30.67,19.19-47.07-1.92-.74-2.58-2.5-2.01-5.27,6.99-20.99,10.39-42.69,12.75-64.93l.56-12.64c.25-5.74.26-10.46.07-16.21l-.55-16.46-1.44-13.53c1.12,1.26,1.74,2.58,2.71,4.35-1.51,3.28-.78,7.24,2.79,8.19l-.29-15.43,2.4,21.03-.39,44.52-4.58,32.49c-.16,1.16.47,2.09,1.2,2.05Z"/>
  <path class="st88" d="M704.54,266.75c.68,1.94.42,4.32-.8,7.14-1.21,6.02.05,8.5,3.75,7.45.21-2.05.44-3.46,2.83-3.36l.3,6.87,2.96.4c-.08.67-.17,1.19-.28,1.2-22.65.86-45.56.74-68.64.14l-1.51-1.5.13-1.28c.6-2.19,2.65-2.98,6.13-2.39-1.1-4.02-.7-6.8,1.2-8.33l.28-1.8c-2.34-5.02,2.32-8.42,2.82-3.33.77,4.12,1.42,4.84,1.96,2.15-.82-1.77-.15-2.17,1.22-.75.79-1.19,2.82-.35,2.42-.07-.99.67-1.94-.26-2.6-1.34-2.29.59-5.41-1.78-2.42-3.34l43.97.13c3.85-.18,5.94.49,6.29,2Z"/>
  <path class="st82" d="M847.51,568.34c-9.38,17.41-21.45,35.21-34.99,50.55l-7.25-5.22,22.5-29.22c15.95-20.71,26.27-46.46,34.69-71.75.73,1.42,1.91,4.02,4.02,3.54.92-.21,1.13-3.11,2.16-3.12-5.07,18.61-12.45,35.8-21.5,52.64-.58,1.07.05,1.92.38,2.59Z"/>
  <path class="st101" d="M720.51,262.21c-2.19.83-4.3.99-6.34.49l-80.65.17c-1.66-3.37-2.23-6.32-.69-9.53l58.71-.19,29.71.3c.53,2.89,1.07,6.39-.74,8.77Z"/>
  <path class="st39" d="M582.8,906.99c1.09,2.24.04,4.73-1.95,6.02,1.05,3.68-2.61,8.91-6.54,7.44-1.83-1.63-3.55.73-3.68,2.45l-.75,2.13c-43.11.38-86.21.39-129.3.03l-228.1.02c-.05-.4.35-.96.63-1.01l40.21-.06,16.38-.69,196.72-.43,35.24-.57h63.9c5.7-3.86,10.18-8.52,14.35-13.89.78-1,1.78-1.46,2.9-1.43Z"/>
  <path class="st14" d="M431.53,168.42l-10.76,9.05,4.4,16.99-14.81-9.14-14.43,9.12,4.41-17.2-11.16-9.39.3-1.01c5.18-.32,10.33-.8,15.42-1.45,1.69-4.91,3.81-9.43,6.36-13.56l5.01,13.42c4.96.91,10.14,1.56,15.53,1.95l-.27,1.24Z"/>
  <path class="st65" d="M282.59,455.1l.18,3.96c1.96,8.47,3.59,17.06,4.89,25.77,4.76,21.35,11.38,42.12,19.87,62.3.28,2.83.06,4.15-2.49,5.6,5.04,10.09,10.21,20.19,16.27,29.64.12,2.78-.99,3.97-2.86,1.81-12.5-19.71-22.38-40.93-29.91-63.04-.7-5.54-2.2-11.33-4.51-17.37-3.44-11.15-5.49-22.39-6.13-33.73l-1.75-13.86c-.31-5.38,3.41-4.22,3.43.46.3-1.6,1.39-1.88,3.02-1.54Z"/>
  <path class="st145" d="M769.29,168.36l-10.87,8.97,4.2,17.1-14.68-9.24-14.45,9.19,4.34-17.1-10.7-9.08-.65-1.13c5.12-.61,10.29-.95,15.5-1.01,2.28-4.52,4.25-9.38,5.93-14.57,2.25,4.75,4.55,9.45,6.9,14.09,4.56.73,9.22,1.22,13.97,1.49l.52,1.3Z"/>
  <path class="st98" d="M307.58,548.11c6.14,10.23,12.05,20.67,17.72,31.32l1.51.51c7.35,11.86,15.88,22.89,24.85,33.65l-7.36,5.25c-10.01-10.91-18.22-22.6-25.86-34.65.68.1,1.14-.34,1.13-.67-.01-.75-.79-1.63-1.19-2.22-6.29-9.36-10.65-19.12-16.09-29.56,2.64-1.06,4.11-2.5,5.23-4.6.55.24.55.57.06.98Z"/>
  <path class="st119" d="M596.51,927.45c-6.24,3.56-10.11,9.28-14.73,15.32-5.44-6.46-10.09-11.88-16.47-16.82l-123.57.16c-.86,0-1.21-.67-1.17-1.06l54.45-.48,68.53-.64,7.07-1.04c-.18-1.87,2.01-3.64,3.68-2.45,2.63-2.03,4.88-4.6,6.54-7.44l2.37.56c.92,2.83,2.47,5.13,4.66,6.92,4.27,1.18,8.14,2.73,11.61,4.66-1.81.34-2.8,1.1-2.97,2.3Z"/>
  <path class="st59" d="M690.57,157.94l-3.35,4,5.22,19.55-17.09-11.16-17.76,11.34,5.81-20.48c-1.95-1.38-3.63-2.46-4.81-4.13-2-4.12,3.6-4.17,6.94-3.59,7.58,2.85,12.45,2.06,19.79-.94,6.1-1.07,11.74-.6,5.25,5.41Z"/>
  <path class="st112" d="M626.87,855.72c2.15,7.79,7.56,12.16,16.42,15.01l-44.24.14c7.46-2.79,12.99-5.44,15.67-12.73,3.56-9.68,2.15-15.58,3.81-22.36.01,2.84-.39,6.06.76,9.39l.31-34.07c.04-4.92.86-9.56,2.99-13.63-.23,20.44.87,40.42,3.31,59.94.09-1.04.42-1.6.98-1.69Z"/>
  <path class="st16" d="M499.93,159.02c-.62.51-1.33,2.1-2.24,1.73-.19,1.04-.47,1.51-.84,1.4l4.43,17.32c-.49,1.02-1.17.9-2.01-.08l-14.3-8.76-17.3,10.86,5.12-20.14c-1.43-1.21-2.6-2.1-3.18-3.24-2.05-2.45-2.35-3.95-.89-4.5,5.6-.67,11.15.12,16.66,2.36,4.4-2.26,9.35-3.23,14.86-2.91,3.02.25,2.92,2.24-.3,5.98Z"/>
  <path class="st132" d="M526.6,253.68c1.07,4.52,1.31,6.66-3.79,7.58-28-.1-55.95-.2-83.86-.3l-1.11-.84c-.57-1.98-.76-4.16.45-6.63,29.47-.52,59.32-.8,88.32.2Z"/>
  <path class="st91" d="M511.49,265.28l.66,2.18c-2.47,3.71-3.3,8.17-2.47,13.36,3.46-.13,5.1.99,4.93,3.37l-.65,1c-5.21.73-10.45.8-15.73.22-1.6,2.12-5.35,2.42-6.64-.15-2.91-1.09-3.36-4.22-1.36-9.4.46-3.62.26-4.94-.6-3.95.01,1.94-.36,2.04-1.2.25-1.95-1.08-3.94-2-5.99-2.77-2.69,1.52-5.04,2.02-7.04,1.48-.1,4.69-.08,9.4.04,14.14-6.53.84-13.18,1.01-19.94.53-.77,1.74-6.38,1.42-6.95-.47l.12-1.98,1.72-1.32c4.07,1.25,5.44-1.31,4.13-7.67-1.35-3.34-1.66-6.22-.92-8.66,1.7-.74,3.06-.79,6.03-.75l51.88.6Z"/>
  <path class="st171" d="M429.37,861.15c4.05,4.28,7.84,7.21,14.87,9.66h-44.22c7.56-2.8,12.87-5.25,15.4-11.87-.09.91.07,1.77.71,2.11,4.03-7.25,4.94-14.7,5.09-22.63l.62-32.33h1.53s.58,36.9.58,36.9c.11,6.78,1.25,13.76,5.41,18.16Z"/>
  <path class="st1" d="M405.68,1006.02l-16.3.34c.78-1.66,2.05-1.66,3.62-2.42l-9.23-14.49-9.23,14.29c1.5.93,2.61,1.12,3.57,2.51l-13.03-.4c3.34-1.25,5.44-2.93,7.56-5.73l9.83-12.96-11.88-17.28c-1.09-.97-3.68-.72-4.45-2.91l15.61-.02c-.76,1.48-1.85,1.66-3.4,2.47l8.07,13.12,8.36-12.59c.09-.81-2.15-1.78-3.33-2.52,4.28-.65,8.34-.73,13.4-.05-2.5,1.46-5.24,1.62-6.96,4l-9.8,13.57,11.5,17.13c1.42,2.12,3.59,2.31,6.1,3.92Z"/>
  <path class="st66" d="M527.67,600.06c0,.88.76,2.91-.14,4.12l-89.7-.27c-1.6,0-.7-3.21-.71-4.19l.92-1.94,88.21-.27c.7,0,1.16,1.56,1.42,2.56Z"/>
  <path class="st47" d="M722.53,599.05c-.26,1.54-.1,3.25-.98,5.08l-89.56.03-.59-5.08.18-1c30.06-.67,60.15-.79,90.25-.36l.69,1.32Z"/>
  <path class="st46" d="M642.07,421.3c-.92,1.73.95,2.22,1.36,2.9-.61.45-1.46.93-2.94.93l-124.01.07.15,57.95c0,1.44-.18,2.42-.99,3.03l-.04-61.07c0-1.34.44-2.26,1.06-2.99,41.46-.73,83.26-1,125.4-.82Z"/>
  <path class="st70" d="M489.7,977.39c2.46-2.26,6.4,2.52,3.76,4.76,1.1-.39,1.6.36,1.49,2.25l5.45,5.95c2.27.58,3.3,2.87,5.54,4.82,1.74-2.59,3.75-5.63,3.64-9.03-.06-1.88-2.57-2.01-4.07-2.96,4.6-1,8.5-.6,13.17-.27l-4.47,2.79-6.94,10.67c3.15,4.5,6.9,8.24,12.91,8.62-6.38,3.85-12.62,1.9-16.49-4.58-5.3,6.86-14.2,8.9-20.83,4.47-5.61-3.75-5.83-11.34-1.56-16.02,2.11-2.31,4.44-3.29,7.35-4.98-1.46-1.3-2.25-2.45-3.02-3.7-.58-1.98-1.39-10.36,1.95-9.87.44.06.79.44.98.96-.6,2.2-.81,4.63,1.14,6.11Z"/>
  <path class="st0" d="M510.58,150.28l-10.65,8.75c-2.23-.16-.06-.99,1.81-4.08l-11.59.81c-1.36.1-3.42,2.74-5.49,2.07-5.38-1.75-10.78-3.21-16.1-2.46,1.36,1.11,1.5,2.11,1.05,2.74l-10.03-7.92-.06-1.12c6.14-.94,12.33-1.43,18.58-1.49,2.58-5.33,4.75-10.84,6.5-16.52l1.19-.03,6.83,16.45c5.77.43,11.56.93,17.36,1.49l.6,1.3Z"/>
  <path class="st105" d="M733.26,243.51c-.07,1.86-4.5,1.54-6.79,5.13-33.43.81-66.83.61-100.2-.59l-5.72-4.79c.2-.9.55-.92,1.04-.11l111.67.36Z"/>
  <path class="st18" d="M427.58,243.22l111.03.1c-.97,2.17-4.27,2.53-5.67,4.1-1.38.88-2.93,1.61-4.61,1.63-32.04.33-64.02.14-95.95-.55-1.34-3.43-6.17-2.71-6.39-5.14.22-1.95,1.02-2.02,1.59-.15Z"/>
  <path class="st9" d="M700.48,150.17c-3.05,2.78-6.19,5.82-9.91,7.76-.55-1.11.68-2.16,2.18-3.39-7.41-2.4-14.99,4.43-19.85,2.91-6.28-1.96-12.67-3.7-14.31-.39l-8.03-5.89-1.4-2.3c6.32-.71,12.66-1.11,19.04-1.18,2.28-5.71,4.69-11.36,7.22-16.96,2.27,5.59,4.59,11.13,6.95,16.61,5.96.58,11.96,1.15,17.97,1.71l.14,1.12Z"/>
  <path class="st67" d="M693.58,1000.37c-3.54,8.14-13.49,7.38-23.41,5.13.21-3.35-1.2-6.19.18-9.91,1.93,7.26,8.44,10.91,14.77,8.18,2.67-1.16,3.9-3.91,4-6.15.14-2.96-1.66-5.06-4.53-6.58l-9.13-4.82c-4.46-2.36-5.95-7.32-4.62-12.29,2.15-8.04,12.41-8.84,22.01-6.22-.06,3.46.6,5.55-.27,8.8-2.02-3.26-2.89-5.78-4.73-6.48-3.44-2.16-6.64-1.92-9.57-.31-2.02,1.82-3.09,4.15-2.68,6.74.92,5.82,11.71,6.83,16.66,11.94,3.19,3.3,3.11,7.81,1.3,11.97Z"/>
  <path class="st174" d="M313.83,992.85c-4.77-.87-9.06-.56-14.18-.28-1.34,2.91-2.63,6.17-3.1,9.66-.31,2.33,2.47,2.8,4.25,3.64-4.85.64-8.5.72-13.61.04,3.97-1.2,5.53-2.92,6.81-6.44l11.52-31.51c.51-1.39,3.48-1.8,4.86-1.52l12.1,33.74c1.06,2.96,2.74,4.4,5.61,5.76l-14.84.08c1.02-.86,3.71-1.54,3.32-2.99l-2.74-10.18Z"/>
  <path class="st23" d="M747.05,1006.97l-11.77-1.4c.18-3.84-1.43-6.56.45-10.05,1.43,7.4,8.25,10.87,14.46,8.33,2.74-1.12,4.03-3.82,4.05-6.26s-1.48-4.89-3.98-6.2l-9.8-5.14c-4.28-2.24-5.74-6.74-4.85-11.49,1.6-8.55,12.12-10.07,22.12-6.99-.09,3.26.57,5.38-.52,8.65-1.07-3.72-3.07-6.01-5.73-7.06-3.44-1.36-7.43-.96-9.6,2-2.86,3.91-.29,8.69,3.87,10.62s8.81,3.37,11.98,7.01c2.9,3.32,2.57,8.19.53,12.05-1.82,3.43-5.85,6.57-11.21,5.93Z"/>
  <path class="st15" d="M604.16,992.55l-3.11,9.89c-.54,1.72,2.36,2.6,3.84,3.48-4.66.43-7.89.7-12.73-.03,4.05-1.21,5.35-3.14,6.62-6.66l11.3-31.53c1.19-.94,2.98-1.37,4.74-1.5l11.89,33.74c1.15,3.28,2.8,4.62,6.23,5.93l-15.62.27,3.85-2.35-3.18-11.13-13.82-.11Z"/>
  <path class="st151" d="M957.48,1000.29c-3.81,7.95-13.59,7.54-23.32,5.29.14-3.52-1.4-6.17.36-10.1,1.36,4.22,2.52,6.47,5.43,7.86s6.09,2.25,9.27.49c2.48-1.37,3.84-3.79,3.93-6.25s-1.4-4.85-3.96-6.14l-9.23-4.67c-4.51-2.28-6.47-6.99-5.49-12.02,1.66-8.56,12.16-10,22.13-7.04-.11,3.34.58,5.44-.44,8.68-1-3.39-2.78-5.65-4.99-6.68-3.41-1.59-6.77-1.65-9.51.45-1.98,1.52-2.61,3.87-2.11,6.3,1.25,6.13,11.89,6.86,16.7,12.02,2.91,3.11,3.13,7.86,1.23,11.81Z"/>
  <path class="st51" d="M519.63,265.65c-2.39,4.35-9.54,5.2-7.03-.27.63-2.79,6.09.51,8.41-2.48l-78.39.05c-2.43,0-4.22-.85-4.78-2.82,1.84-1.25,4.13-.79,6.8-.79l81.75-.06.22-5.58c1.96,1.93,1.44,7.08-1,8.1-2.72,1.14-4.01,2.65-5.98,3.87Z"/>
  <path class="st117" d="M532.94,247.43c-1.49,1.67-2.91,3.99-6.4,3.11-3.07-.78-6.02.41-9.09.41l-71.75.05c-3.16,0-5.76-1.58-9.27-.42-1.58.52-3.62-.99-4.05-2.08.55-2.54,2.11-1.47,4.24-1.47l96.32.39Z"/>
  <path class="st176" d="M236.16,1000.14c0,2.88,1.53,4.44,4.92,5.67-5.11.8-9.85.76-15.78.13,2.66-1.18,4.96-1.97,4.95-5l-.19-30.79c-3.74-.63-6.84-.83-10.04.47-1.79.72-1.67,3.61-3.72,5.22l.41-9.4,14.88.58,18.55-.57-.21,9.24c-1.98-1.71-1.75-4.68-3.5-5.22-3.49-1.08-6.42-.96-10.17-.44l-.08,30.1Z"/>
  <path class="st103" d="M883.97,1000.94c0,2.72,1.94,3.78,4.96,4.89-5.27.82-10.45.6-15.63,0,2.17-.77,4.49-1.64,4.5-3.71l.12-32.04c-4.04-.57-7.23-.49-10.77.6-1.15,1.97-1.32,4.03-3.36,5.41l.6-9.81,15.19.74,17.88-.61.02,8.98c-1.68-1.18-1.93-2.68-2.77-4.46-3.57-1.48-7.18-1.45-10.83-.84l.11,30.85Z"/>
  <path class="st69" d="M726.46,248.64c-1.07,1.67-3.67,2.01-5.82,1.75-7.63-.91-14.59.36-22.05.42l-35.01.29-5.83-.94c-5.71,1.3-10.68,1.31-16.32.07-6.03-1.32-9.56,2.53-15.17-2.18.8-1.51,2.5-.86,4.29-.86l59.01-.06,35.94.07c.89,0,1.24.82.96,1.44Z"/>
  <path class="st58" d="M783.59,925.1c-2.66-.33-2.54-1.27,0-2.05l153.34.43,26.15.46c.27.06.66.79.6,1.11l-180.1.04Z"/>
  <path class="st95" d="M730.92,609.33l-106.89.34c-.91.38-1.53-.02-1.46-.92,2.81-3.05,6.04-2.91,10.1-2.91h92.83c2.35,0,4.57,1.86,5.42,3.5Z"/>
  <path class="st120" d="M537,609.68l-103.35-.13c-2.36,0-4.35.62-5-1.7,2.87-2.26,5.41-1.94,9.02-1.94l90.86-.03c3.28,0,7,.25,8.46,3.8Z"/>
  <path class="st84" d="M718.88,568.39c.84,1.2.81,2.44.54,3.64l-4.44,1.59c-26.57.22-53.09.09-79.54-.41l-1.18-1.28c-.26-1.27.12-2.04.24-3l1.85-1.43c53.33-.06,80-.09,80-.09l2.54.97Z"/>
  <path class="st106" d="M783.59,923.05v2.05s-11.01,0-11.01,0c-16.66-.4-33.33-.73-50-1.01-41.01,1.07-82.28,1.4-123.83.99-1.43-1.27-3.53-2.22-6.29-2.85-1.64-1.6-1.43-2.94.88-3.42,1.27.89,3.21,3.12,5.4,3.13l88.27.62,96.58.48Z"/>
  <path class="st165" d="M954.19,852.4c28.48,16.13,62.08,16.71,87.37-5.42l-.28-47.39c-.03-5.6-2.39-10.17-5.8-13.78-.72-.54-.6-.86.31-.96,2.43,2,5.06,4.09,5.85,8.05l1.84,9.28-.38,43.82c-4.49,7.92-15.19,13.04-23.7,15.64-4.21,1.29-7.68,3.3-11.91,3.24l-24.33-.34c-11.17-1.94-21.45-5.56-28.96-12.14Z"/>
  <path class="st158" d="M721.75,596.26c.51.87.99,1.58.79,2.79l-91.12.04c-.07-.58-.11-1.44.09-1.98l2.97-1.84c27.67-.27,55.35-.34,83.05-.21l4.22,1.2Z"/>
  <path class="st135" d="M527.67,600.06c-2.35-1.16-5.04-.74-8.16-.73l-82.39.39c0-1.18-.91-2.61.29-3.89l3.15-.83,86.06.11c1.7.83,1.05,3.39,1.05,4.95Z"/>
  <path class="st44" d="M524.8,569.15c.45.72.88,1.57.6,2.08-.16.29-.7.72-.79,1.22l-1.52,1.17c-27.38.41-54.67.22-81.86-.58l-1.39-1.34c-.33-1.69-.03-2.45.56-3.42.9-.71,1.94-1.04,3.09-1.03,24.09.04,49.08.14,73.28.68,3.28-.76,5.96-.35,8.04,1.23Z"/>
  <path class="st134" d="M538.64,242.1c-1.41-1.62-1.42-4.23-.83-7.93l-110.31-.14c-.64,3.44-.05,6.3.08,9.19l-1.59.15c-.33-3.59-.3-7.34.37-11.04l112.14-.29.15,10.05Z"/>
  <path class="st48" d="M719.41,572.03c-.47,2.02-2.24,3.19-4.87,3.19h-76.93c-2.4,0-3.01-1.56-3.36-3.29l36.34.14,48.82-.04Z"/>
  <path class="st54" d="M524.61,572.45c-.4,2.25-1.79,2.78-4.04,2.78l-76.96-.1c-2.33,0-3.38-1.4-3.78-3.43l19.79.34,64.98.41Z"/>
  <path class="st116" d="M639.52,405.05l2.07,1.98-124.99.08c-.26-.35-.63-.83-1.03-1,.16-.6.73-1.05,1.3-1.05h122.64Z"/>
  <path class="st178" d="M717.76,286.84c.97,1.21,1.29,2.64.66,4.19l-2.65,1.44c-25.54-.59-51.11-.54-76.72.17-1.43-.19-2.61-.7-3.57-1.54l-.22-1.04c.37-.77.91-1.86,1.63-3.25,26.94.18,53.9.19,80.88.02Z"/>
  <path class="st85" d="M593.34,918.82c-1.82,1.24,4.49,5.2,6.51,5.2l122.74.07c.88.19.86.48,0,.87l-12.17.92-107.75.21c-2.67,0-4.57-.36-6.15,1.36-.74-.58-.72-1.26-.34-1.47l2.66-1.43c-11.2-.97-13.94-.98-17.99-11.55-.71-2.23.26-4.25,1.95-6.02,3.22,4.23,6.05,8.71,10.54,11.83Z"/>
  <path class="st41" d="M808.56,1001.87c1.56,2.61,15.76,4.39,18.19-4.9,1.28,3.79-.3,6.21-.9,9.41h-27.47c.84-2.21,2.94-1.69,3.55-2.44.64-.81.93-2.6.91-3.78l.07-29.06c.93,7.52,1.37,15.39,1.32,23.61l-.7-23.76c-3.48-4.57,8.08-3.68,4.76-.65-.83,6.06-.28,11.55,1.65,16.49-.73.03-1.36.14-1.68.52-.49.59-.5,12.72.3,14.58Z"/>
  <path class="st90" d="M643.96,563.94h67.14c2.26,0,3.99-.16,4.53,2.51l-.12,1.09c-26.64.8-53.07.55-79.29-.75,2.27-2.98,4.48-2.86,7.74-2.86Z"/>
  <path class="st94" d="M448.89,564.03l67.17-.06c2.19,0,3.99-.17,4.79,2.24l-.04,1.36c-25.83.46-51.67.43-77.53-.09l.34-1.3c.92-2.93,3.1-2.15,5.27-2.16Z"/>
  <path class="st147" d="M524,290.09c.07.38-.2.72-.24.98l-2.65,1.07c-25.94-.28-51.81-.15-77.61.39l-2.65-1.5c-.48-1.37-.07-2.63.51-3.78l1.5-.8c24.97,1.01,50.13.96,75.5-.13,2.76-.33,4.64.93,5.64,3.78Z"/>
  <path class="st159" d="M448.55,285.07l6.95.47,18,.15c.79-.74,1.61-1.39,2.55-1.75.84-.32,11.65-.22,12.89.15.92.28,1.79.71,2.65,1.18,2.03-.12,4.79-.67,6.64.15,3.24.81,5.14.43,5.71-1.14.78-.16,1.52.3,2.24,1.39,3.36.07,6.57-.06,9.64-.38,1.4-.66,4.56-.45,6.26.3,1.83.8,1.99,3.2,1.92,4.52-.91.03-2-.5-2.02-2.22-9.73-.5-19.31.49-29.35,1.16l-19.71-.64-31.55-1.14c1.4-2.8,4.48-2.36,7.19-2.18Z"/>
  <path class="st45" d="M621.52,131.23c-1.5-1.12-3.62-1.38-5.87-1.19-4.31.36-8.02-.58-12.17-.76l-12.34-.55-10.8-28.37-10.09,28.8c-5.65-.52-10.93.74-16.57.84l-16.1-.08c7.12-2.2,14.4-1.11,22.01-1.91l9.53-1.01,11.26-31.24,11.87,31.57c4.31-.65,7.59.53,11.46.63l9.77.26c3.6.1,6.35,1.08,10.27.98l-2.22,2.03Z"/>
  <path class="st56" d="M643.14,285.09c10.54,1.63,21.17.93,32.11.77l19.73-.29,18.6-.32c1.76-.03,3.13.28,4.18,1.59.14.91-.84,1.54-1.53.75l-43.71.77-35.49-.63-.22,1.87c-.06.48-1.21.77-1.56.47-.27-1.28.05-3.73,1.8-4.44,1.91-.78,4.39-.79,6.08-.53Z"/>
  <path class="st162" d="M440.59,594.09l2.23-1h78.21s1.18.33,3.55,1.01l2.05,1c-.02.44-.38.9-1.12.91l-47.88.35c-7.57.06-14.51-.2-22.07-.11l-18.14-.42c.89-.95,1.66-1.74,3.17-1.74Z"/>
  <path class="st26" d="M718.81,593.94c1.25.57,2.17,1.01,2.94,2.32-1.1.69-2.63-.08-4.27-.08l-77.84-.12c-3.16,0-5.72.17-8.14,1.06.55-1.44,1.84-2.23,3.06-3.08l3.56-.97c26.32-.05,52.59-.02,78.82.1l1.86.78Z"/>
  <path class="st99" d="M718.41,291.03c-.54,1.31-1.88,2.07-2.83,3.07l-63.24.48s-4.47-.12-13.4-.37c-1.13-.91-3.09-1.28-3.47-3.1l82.94-.08Z"/>
  <path class="st72" d="M808.56,1001.87c-2.63-4.4-.5-11.06-.61-16.25l-.35-15.74c-.03-1.55-3.47-1.45-3.45-.39l.46,25.1c-.2.41-.61.52-.73.51l-.95-24.02c-.08-2.02-2.99-2.72-4.53-3.88l26.8-.31c-.09,3.38,1,5.49-.69,8.77-1.19-4.45-2.94-6.06-6.92-6.02l-8.57.1c-.26,4.42-1.13,9.45.04,14.15.41,1.66,10.78,2.79,13.25-3.37.55,4.57.49,7.58-.04,11.72-2.01-5.97-5.93-4.98-13.66-5.15l-.05,14.76Z"/>
  <path class="st122" d="M443.62,566.18c.04.28.3.74,1.1.9h72.86c1.49,0,2.49-.43,3.26-.87,2.3-.09,3.05,1.47,3.96,2.94.02.7.34,1.65-.79,2.32-.55-1.41-.91-2.43-1.33-2.85-.36-.35-1.31.16-2.37.16l-79.92-.51c.71-1.17,1.72-2.14,3.23-2.09Z"/>
  <path class="st22" d="M623.09,701.65l.61,133.27,1.09,10.24c.38,3.59,1.25,7.58,2.08,10.56-.22.61.13,1.49-.91,2.4-1.18-4.46-2.98-9.26-3.02-14.55l-.36-46.1.51-95.82Z"/>
  <path class="st81" d="M1038.71,860.99c-15.82,8.96-33.61,13.81-52.1,12.21l-13.82-1.2c-13.59-2.25-26.08-6.71-37.37-13.93l1.03-1.33c28.63,18.33,69.9,20.51,100.51,3.58.69-.38,1.64-.05,1.75.68Z"/>
  <path class="st109" d="M521.57,592.05c1.39,0,2.56.72,3,2.05l-83.99-.02c.38-.9,1.1-1.59,1.99-2,2.15-2.17,3.34-2.33,3.57-.5l71.35-.02c1.4-1.28,2.76-1.12,4.08.48Z"/>
  <path class="st74" d="M523.75,291.07c-.19,1.12-1.62,1.5-2.1,2.15l-4.04,1.36c-24.67-.52-49.34-.69-74.02-.49-1.25-.63-2.28-1.74-2.74-3.05l82.91.04Z"/>
  <path class="st53" d="M716.6,592.04c.56.56,1.53,1.57,2.21,1.9l-84.24.09c.81-.56,1.83-1.94,3.01-1.94,1.77-2.24,2.8-2.45,3.09-.64,24.04-.04,48.07-.07,72.09-.11.52-.66,1.8-.43,3.85.69Z"/>
  <path class="st5" d="M521.65,293.22c-1.01,1.34-2.22,2.5-4.09,2.73l-67.41.11-4.54-.95-2.03-1.02c-.06-.37.33-1,1.11-1l76.96.13Z"/>
  <path class="st63" d="M324.06,851.03l-.03-154.61.03,154.61Z"/>
  <path class="st161" d="M846.61,850.04c-.23.17-1.19-.21-1.19-1.15l.78-151.54.41,152.69Z"/>
  <path class="st4" d="M453.59,265.43c3.53,5.93,3.56,12.39,2.7,18.26-3.16.09-5.52.87-7.62-.61.24-5.96.3-12.13-4.08-17.66,2.57-1.51,6.85.94,9.01,0Z"/>
  <path class="st97" d="M647.28,265.01c3.34-.07,4.45,2.62,3.32,8.08l1.14,10.71c-2.92-.76-5.66-.28-8.47,0,.59-6.6.29-13.12-4.91-19.25l8.93.45Z"/>
  <path class="st104" d="M519.63,265.65c-3.83,5.47-3.93,12.01-3.66,18.33-.25.9-.78.97-1.35.21-2.03-1.4-4.52-1.63-6.92-.05l-.03-10.04c-.01-3.68,1.5-6.63,3.82-8.83l1.11.1c-.05,1.56,1.95,2.14,3.17,1.73,1-.34,2.55-.64,3.86-1.45Z"/>
  <path class="st130" d="M715.58,294.09l-1.01,1.07-8.19,1.43c-21.67-.56-43.21-.75-64.62-.57-1.55,0-1.98-1.13-2.83-1.81,2.69-.52,6.52-1.49,9.27-.69,4.61,1.33,8.11-.15,12.47-.18l53.82-.32c.74,0,1.18.74,1.09,1.07Z"/>
  <path class="st89" d="M713.85,266.84c-2.69,3.28-2.91,7.25-3.53,11.14-.28,1.74-1.38,3.42-.65,6.42-2.62-1.2-4.32-1.15-7.71-.77-.62-5.9-1.05-12.57,2.58-16.87-1.74-1.42-.87-2.12,1.23-1.47h.89c2.1.35,4.27.44,6.5.29l.69,1.27Z"/>
  <path class="st181" d="M712.4,584.12c.24,3.04,2.05,5.76,4.2,7.92-.49,2.02-2.34.15-3.17.15l-75.86-.09c1.9-3.78,4.37-7.64,3.91-12.02,2.09,2.87.95,6.44-1.36,10.73l18.38.02c4.58,0,8.74-1.49,13.34-.02,3.8,1.21,8.08-.34,11.69-.11,4.05.25,7.24.62,11.35-.21,5.79-1.18,11.61-.07,17.98.02l-2.53-7.97c1.53-.78,1.6,1.05,2.07,1.58Z"/>
  <path class="st71" d="M308.96,546.89c.59,1.78.16,2.41-1.38,1.21.03-.29.05-.75-.06-.98-12.83-27.91-21.19-57.58-24.76-88.07,1.65-1.41.57-4.07.83-5.89l1.86,13.12c3.21,28.13,11.71,55.33,23.5,80.6Z"/>
  <path class="st153" d="M510.58,150.28c-6.19-2.8-17.22.49-18.56-2.6l-6.99-16.07c-1.67,5.53-3.41,11.15-6.35,16.75l-15.17.7c-1.61.07-2.91.4-3.93,1.13-.61-.48-1.73-.45-2.01-2.23,3.66.81,6.53-.54,10.01-.84s7.13.77,10.42-.47l7.37-19.29,7.78,19.88,10.33.03c3.54,0,6.37,1,10.26,1l-3.16,2.01Z"/>
  <path class="st20" d="M141.65,699.1l-.81,68.75-.31-67.25c0-.31-.51-.66-.85-.57l-.12,67.56c0,.3-.54.66-.88.57l-.1-69.98c1.25.46,2.06.87,3.08.92Z"/>
  <path class="st114" d="M517.57,295.94c-.7.08-1.47.65-1.98,1.16l-66.04-.1c-1.14,0-2.93-1.41-3.92-1.91l69.96-.03c1.05,0,1.67.42,1.99.87Z"/>
  <path class="st62" d="M500.41,990.34c-2-.51-7.69-6.05-6.95-8.19-.28-.83-.29-1.75.36-2.38,2.83-2.77,6.6-8.33.4-9.6-2.59-.53-3.72,3.2-2.98,5.28l-1.54,1.94c-2.42.57-2.76-2.76-2.24-6.01-3.56,2.36.09,6.76-1.82,8.81-2.43-3.99-2.3-8.88,2.26-12s12.32-2.84,15.13,2.33c2.98,5.49-1.89,11.16-8.07,12.55l5.46,7.27Z"/>
  <path class="st126" d="M714.57,295.16l-4.88,1.93c-.71.28-1.89.97-3.15.94l-42.95-.94c.05-.42-.35-.96-1.05-.96l-20.77-.11c.19-.55.78-.95,1.82-.95l70.98.09Z"/>
  <path class="st75" d="M700.48,150.17c-5.98-2.81-15.58.79-18.47-2.5-3.62-4.12-3.45-10.02-6.62-15.73l-6.68,16.64-16.22.42c-.83.02-1.61.29-1.84.66s-.21,1.16-.1,1.52c-1.12-.82-2.15-1.34-3.08-3.12,3.81.6,6.59-.62,10.11-.93,3.53-.32,7.09.74,10.53-.47l7.33-19.31,7.01,19.66,9,.24c3.92.1,7.02,1.12,11.27.88l-2.25,2.05Z"/>
  <path class="st38" d="M718.88,568.39l-30.77.18-39.46.28c-4.86.03-9.68-2.24-14.16.08.2-1.65,1.37-1.67,1.73-2.14l76.36.26c1.36,0,2.47-.19,3.05-.6,1.84-.24,2.54.94,3.25,1.94Z"/>
  <path class="st164" d="M733.58,233.09l.02,1.36-111.89-.37-.14,9.06-1.04.11.03-10.16c37.08-.88,75.9-.88,113.01,0Z"/>
  <path class="st166" d="M733.58,233.09h-113.01c-.04-.38.31-1,1.16-1h110.7c.84,0,1.19.63,1.15,1Z"/>
  <path class="st127" d="M739.59,819.12l-.05-107.02c.4-.06,1.04.29,1.04,1.14v104.69c0,.88-.74,1.21-1,1.19Z"/>
  <path class="st77" d="M705.76,265.28l-1.23,1.47c-1.06-2.43-7.3.5-8.48,5.51-1.53-2.85.51-4.62,2.55-6.8l-32.82-.13-11.3-.1c-.06,1.64,1.05,2.43,2.21,2.73,1.95-.01,2.03.76.18,1.41l-1.22.75c-1.85,1.93-1.98-.05-1.96-2.15-.47-.51-.86-1.1-1.62-.68-1.86,1.02.53,4.58-1.48,5.81-.31-2.95-1.37-5.6-3.32-8.08l5.29-1,48.04.04c2.13,0,3.81.18,5.16,1.22Z"/>
  <path class="st19" d="M431.53,168.42c-.58-.75-1.61-1.29-2.95-1.3l-11.9-.12c-2.96-4.37-3.85-9.17-5.67-14.09l-4.83,11.83c-1.9,4.66-9.89.67-17,3.1-1.86-.15-1.79-2.26.05-1.84l15.14-1.13,6.31-16.62,6.16,16.83c3.71-.28,7.03.78,10.7.98l7.09.4c-1.51.76-2.16,1.18-3.1,1.96Z"/>
  <path class="st60" d="M769.29,168.36c-5.28-2.85-14.31.31-15.47-2.44l-5.65-13.35-5.61,14.42-13.04.03c-1.18,0-1.84.49-2.39,1.18-.58-.49-2.51-.35-2.49-2.06l8.86-.18,8.92-.94,5.84-16.35,5.9,15.92c5.9,1.08,11.28,1.98,17.42,1.4-.19,1.69-1.6,1.8-2.29,2.37Z"/>
  <path class="st168" d="M519.53,588.49c.47,1.31,1.18,2.49,2.04,3.56l-79,.04,3.31-4.97c-.08.96,1.18,2.36-.33,3.97h71.96c1.01-.43,1.64-2.1,2.02-2.6Z"/>
  <path class="st71" d="M288.54,521.14c-5.55-16.28-10.16-32.95-12.21-50.01l1.57-1.1c2.99,16.41,5.93,32.86,11.86,48.97.35.95-.7,2.29-1.22,2.14Z"/>
  <path class="st77" d="M720.51,262.21c-1,1.14-4.34.89-5.16,2.86-.82-.43-.76-.78.15-1.06.1-.47-.31-.87-1.1-.87l-80.88-.27,86.98-.66Z"/>
  <path class="st107" d="M228.84,851.84l-.25-77.76-86.26-.11c.71-.77,1.69-.94,3.22-.94l84.1.14-.81,78.66Z"/>
  <path class="st177" d="M1076.74,782.22c-1.08-.36-3.56-1.55-4.76-.98-3.56,1.7-6.14.05-9.42.05l-31.02.07,4.25,3.49c-.14.41-.16.69-.31.96l-11.27-5.77,56.49.07c-1.09,1.41-2.76,1.58-3.96,2.11Z"/>
  <path class="st13" d="M514.62,284.19c.3-.18.92-.2,1.35-.21l-.15,1.3c-2.83,1.33-14.64,1.43-17.59.14,1.74-.35,3.18-.46,5.42.03-.21-1.57-1.47-1.88-1.97-2.44-.42-4.67-.27-9.34,1.11-13.52,1.25.06,2.49.19,4.04-.31-1.33,5.48-1.54,10.25-1.17,15.75,3.32.33,6.47.78,8.95-.74Z"/>
  <path class="st172" d="M555.68,180c-.5.32-1.13.96-2.27.93l8.21-31.91c.56.26,1.71.11,1.93.84.28.92.51,2.19.16,3.24l-6.71,20.48c-.76,2.31-1.83,4.22-1.32,6.42Z"/>
  <path class="st179" d="M1065.67,798.13l-.08.96c-.35,22.43-.68,44.92-.99,67.45l-1.12-.4c-.2-.88-.67-2.05-1.2-2.79.91-1.13,1.34-2.46,1.34-4.25l-.04-61.9c.99.08,1.53.66,2.09.93Z"/>
  <path class="st20" d="M228.57,768.13l.26-71.84.97,70.73c.01.94-1.04,1.24-1.23,1.12Z"/>
  <path class="st171" d="M1063.48,866.14c.49.01,1.1-.38,1.1-1.14v-64.8c0-.76.61-1.15,1-1.1l-.02,67.85c-.95.58-1.89.08-2.09-.8Z"/>
  <path class="st65" d="M326.82,579.93c.2.6-.8,1.48-1.08,1.04-6.9-10.78-12.72-21.8-18.15-32.86l1.38-1.21c5.29,11.34,11.28,22.42,17.86,33.04Z"/>
  <path class="st40" d="M598.99,149.21l8.71,31.73c-1.17-.05-1.73-.58-2.25-.92l-7.77-27.94c-.19-.65-.87-1.69-.58-2.23.45-.84,1.48-.4,1.89-.64Z"/>
  <path class="st167" d="M141.52,835.13c-.54-.19-1.03-.9-1.03-2.03l.38-58.09.64,60.12Z"/>
  <path class="st58" d="M772.58,925.1l-50-.13v-.87s48.92,0,48.92,0c.73,0,1.14.61,1.08,1Z"/>
  <path class="st131" d="M497.68,160.75l4.72,20.25c-1.74.67-2.36-1.14-3.14-1.62.52.01,1.11-.34,1.2-.87.08-.44-.24-1.06-.45-1.77l-3.87-13.29c-.22-.76-.85-1.43-.16-2.34.42-.55.79-.72,1.69-.35Z"/>
  <path class="st36" d="M715.51,264.01l-.15,1.06c-.13.91-1.1,1.29-1.5,1.77-3.1-.23-5.15,1.56-7.2-1.56-.32-2,3.72-.25,8.85-1.27Z"/>
  <path class="st71" d="M273.6,433.1c-1.6-2.96-1.57-9.87,0-12.99v12.99Z"/>
  <path class="st71" d="M282.58,419.1l-.05-9.09c0-1.07.39-1.82,1.09-1.87l.02,9.01c0,1.09-.43,1.85-1.06,1.94Z"/>
  <rect class="st24" x="545.43" y="426.85" width="248.32" height="6.17" transform="translate(239.163 1099.2069) rotate(-89.9583)"/>
  <path class="st141" d="M687.39,308.12c-.38,40.43-.31,80.75.22,120.96l.4,59.02c.41.1.73.21.73.31.04,21.12-.27,42.62-1.03,63.68-.67,1.39-1.61,2.75-3.18,1.94-2.06-.73-2.88-2.56-2.47-5.5-.36-45.62-.19-91.1.52-136.44.62-.52,1.16-.89,1.42-.75.84.45.33,20.03.31,19.08l-.4-38.4-1.34,1.06c-.33,25.03-.68,50.04-1.03,75.01-1.36.95-1.52.43-1.49-1.1l-.22-159.34c1.87.22,2.85-1.9,4.24-1.82s1.98,1.28,3.31,2.28Z"/>
  <path class="st76" d="M658.58,552.09l-1.15-.16-.31-84.48.44,85.01c-1.86.44-3.28.18-4.27-.78-.35-48.59-.52-97.22-.51-145.88l.8-.69,1.5-.27c-.07-31.92,0-63.65.18-95.19l1.33-.7c-1.7-2.01-.12-2.82,1.98-1.81v244.96Z"/>
  <path class="st49" d="M708.42,398.88l.73.18c-.05,34.44-.09,68.89-.14,103.35l-.73.69c1.23,1.94,1.14,6.91-.01,9-1.66,2.24,2.01,8.26-3.58,13.35l-.14-48.29c0-.71-.57-1.11-.99-1.06l.09-105.07c.36-.09.92.28.92.57l.17,30.46,3.69-3.17Z"/>
  <path class="st125" d="M693.59,460.09l-3.81,6.18-.7,51.33-.44,32.54c-.03,2.1-.59,3.58-2.04,4.47-1.63,1-3.86.65-5.05-.4-.54-.36-.51-.73.03-1.12.74-.55,1.73-.23,2.96.95,2.18-.55,3.04-2.41,3.06-4.93l.41-61,.78-99.86,1.24-9.96c.42-3.37,1.3-7,3.54-9.06.89,29.24.88,61.26.02,90.86Z"/>
  <path class="st137" d="M679.11,414.16c1.2,11.32,1.05,24.35.41,35.93-.35-.04-.89.34-.9,1.09l-.38,53.87c-2.31-1.31-2.55-3.64-2.56-5.95l-.12-45.94c0-.73-.58-1.13-.98-1.09l.16-80.77c4.29,4.2,3.45,7.32,3.55,11.26l.81,31.6Z"/>
  <path class="st2" d="M701.57,310.03c-.39,2.64-1.29,2.51-1.97-.06-.18.91-.69,1.74-1.5,2.49l.46,125.94-1.02.69c.58.06,1.02.11,1.02.18.35,37.37.1,75.79-.31,113.13l-.66.7c-.3.59-.64.57-1,0l-1-1c-.45-.06-.8-.11-.8-.18-.34-28.24-.31-57.32-.23-86.08.14-52.42.44-106.07,1.03-157.75-.87-.29-.85-.61.02-.96,1.12-.97,2.9-1.71,4.3-1.05s1.67,2.49,1.67,3.95Z"/>
  <path class="st111" d="M658.58,307.13c-1.17.67-1.43,1.31-1.98,1.81l-1.48.87c.07,31.55,0,63.08-.2,94.6l-1.33.69v144.78c0,1.67,1.79,2.71,2.96,1.95l.11-84.75c.35-.14.91.19.91.52l1,84.5v1h-6c-.77-81.43-1.11-163.11-1-245.06v-2.24h7v1.34Z"/>
  <path class="st125" d="M695.58,552.09l-1.6-.14-.47-86.85c.46-52.35.78-104.8.94-157.34l1.12.33v244Z"/>
  <path class="st42" d="M701.58,416.09l-.06,135.49c0,1.26-2.03,2.09-2.66,2.38s-2.06.48-2.27-.88h1s1-2.39,1-2.39l-.03-110.92,1.02-.69c-.57-.14-1.02-.3-1.03-.47-.34-6.76-.39-15.11-.08-21.87.01-.24.49-.45,1.11-.67.32-2.66,1.24-2.54,2,0Z"/>
  <path class="st32" d="M679.83,307.66l.74,159.24c0,.91.65,1.23.97,1.2.56,11.93.57,23.93.02,35.99-.88,15.67-.8,32.29.02,48.01.87.29.86.62,0,1l-.03,1.12c-.5-.44-1.93-.79-1.94-2.28l-.1-101.84-.41-35.93.73-106.5Z"/>
  <path class="st92" d="M651.58,308.03c.44,81.47.44,162.83,0,244.06l-1-156.99v-62.01s0-25.85,0-25.85c.86-.37,1.18.43.99.79Z"/>
  <polygon class="st57" points="652.58 553.09 651.58 553.09 651.58 552.09 651.58 308.03 651.58 308.03 652.58 553.09"/>
  <path class="st29" d="M701.57,310.03v106.06s-1.99,0-1.99,0l-1.11-.18-.38-102.36c-.37-2,.13-3.19,1.51-3.58l1.97.06Z"/>
  <path class="st100" d="M709.89,390.09l-.15,113c-.24,1.94-1.03,1.92-1.46,0l.14-104.21.13-99.79h1.46s-.12,91-.12,91Z"/>
  <path class="st154" d="M695.6,307.13l-.02.96c-.37-.03-1.01.28-1.01,1.19v154.61c0,.91-.63,1.22-1.06,1.2l.06-5.01-.02-90.86v-61.05c0-.66.6-1.4.91-1.6.35-.23.87-.13,1.13.54Z"/>
  <path class="st125" d="M687.61,429.09c-.4.05-1.03-.3-1.03-1.15l.81-119.81.22,120.96Z"/>
  <path class="st49" d="M703.03,550.94l-.45-42.78c0-.72.61-1.13.97-1.06l-.52,43.85Z"/>
  <rect class="st167" x="843.58" y="779.09" width="1" height="71.5"/>
  <path class="st171" d="M900.3,784.64c2.36,4.21,3.82,5.49,3.26,9.97-.36,2.89-2.59,6.08-6.02,6.32-.81-7.05-3.04-12.48-2.29-18.97.13-1.12,2.86-1.24,3.29-.46l1.76,3.14Z"/>
  <path class="st93" d="M507.92,307.8c.66,80.49.9,163.86-.32,244.34l-1.98,1.99c-4.2,1.29-5.02-.83-5.5-4.41-.54-80.64-.52-161.27.06-241.88l3.88-2.02c1.16-.61,2.39,2.19,3.85,1.97Z"/>
  <path class="st34" d="M478.95,522.04c.47.15.84.31.85.48.18,4.89.12,11.1-.25,15.96-.02.23-.45.44-1.01.63.67,4.2,1.64,10.67-.97,13.98-.34,1.83-4.27,2.42-4.03.02l-.93-1.22.58-146.17.88-.69,1.02-.02-.04-93.71,1.61-1.2c-1.75-2.24-.93-3.07,1.67-2.01l.15,100.9-.04,13.22.5,99.84Z"/>
  <path class="st12" d="M455.85,548.99l-.33-136.4c0-.31-.49-.64-.81-.56l-.21,56.11c-1.38-1.01-2.38-1.92-3.86-2.14-.93-35.8-.89-74.7-.04-110.9,1.47.08,2.49.93,3.89,2.07l.04-46.15c0-1.59.57-2.18.94-2.94l1.07.3c.32,79.63.38,159.61.19,239.92l-.86.7Z"/>
  <path class="st128" d="M463.62,424.1c-.3.87-.64.86-1.03,0-2.95-.39-1.06-6.59-.02-9.13-1.54-.62-2.48.97-2.81,4.79l1.33.18c.07,43.31.06,86.65-.02,130.01l1.52,1.15c.32-.61.59-.31.81.91-1.25.84-1.92,2.26-3.12,1.88l-2.69-.85-.86-4.23-.19-240.66,1.07-1.23c.99-1.18,5.94-1.8,5.94.5l.09,116.69Z"/>
  <path class="st83" d="M492.58,442.09c-.31,2.66-1.25,2.54-2.03,0-.67-.42-1.32-.59-1.95-.51-.43,2.66-.46,2.84-2.02.51v-133.72c-.01-1.67,1.87-2.56,2.7-2.75,1-.23,3.22.88,3.22,2.84l.08,133.63Z"/>
  <path class="st124" d="M499.1,435.14c1.35,29,1.07,61.3.52,90.95-.43.05-1.05-.33-1.05-1.12v-80.38c0-.29-.56-.66-.9-.57l-.16,76.11c-1.07-.75-1.9-2.52-1.91-4.08l-.52-73.04-.59-104c.54-.09.98.32,1.06.59l.12,64.51h1.8s.13-61.53.13-61.53c0-.29.51-.63.81-.56l.68,93.11Z"/>
  <path class="st17" d="M470.09,431.03l-.65,69.79c0,.67-2.56-.18-2.34-.8.12-.34-.49-1.29-.5-1.99l-.51-42.04-.56-81.97c.55-.05.89.23,1.07.57l.2,11.38.34,1.84c.07.37,1.55.46,1.83.2s.44-1.18.44-1.94l.15-28.04c0-1.09.36-1.83,1.02-1.94.73,24,.61,49.76.29,74.26,0,.23-.34.45-.77.68Z"/>
  <path class="st129" d="M484.16,468.99l-.45,24.12c-.05,2.6-2.13,4.51-2.88,6.02l-.3,42.9c0,.71-.51,1.1-.95,1.07-.36-1.23-.71-2.56-1.03-3.98l.41-17.07,1.18-66.42.65-34.54.69-20.99c.19-5.72-.29-11.48,2.76-16.05l-.08,84.97Z"/>
  <path class="st140" d="M488.61,441.59c1.53.37,1.46,3.04-.04,3.51.7.69,1.37.69,2.03,0-1.57.16-1.49-2.54-.04-3h2.03s.32,99.97.32,99.97c1.35,2.02,1.32,8.06-.32,10.04-.57.83-1.41,2.76-3.26,3.03-.63-.72-1.67-2.89-3.07-2.67l.33-110.39,2.02-.51Z"/>
  <path class="st86" d="M457.59,306.91v246.13c-.53-.86-1.74-2.96-1.74-4.04l.19-168.34-.59-72.58c.74-1.52,1.72-.67,2.13-1.17Z"/>
  <path class="st37" d="M500.19,307.85l.37,241.07c0,2.23.26,3.23,1.45,4.27.89.78,2.31,1.05,3.62.94-.99.99-2.08,1.28-3.35.82-.94-.35-2.59-1.43-2.59-2.99l-.06-25.87-.52-90.95.25-96.91c-.01-4.82-.34-8.29-.07-13.43l.9-16.95Z"/>
  <path class="st110" d="M478.34,308.08l-1.67,2.01-1.56,1.21c-.05,31-.05,62.01-.01,93.03l-1.02.7-.53,148.09c-.9.66-1.64.17-1.86-.92-.16-81.85.19-163.52,1.05-245.03.46-.91,1.55-1.23,2.35-1.34.88-.13,2.75,1.25,3.27,2.25Z"/>
  <path class="st108" d="M471.68,552.2c1.23-.25,1.68.59,1.86.92.49.9,1.37,1.25,2.23.83l1.8-.86c.43-1.23.78-1.26,1.23-.02-.95,1.84-3.07,2.35-4.57,2.07-1.22-.22-3.61-1.16-3.61-3.26l-.53-120.85.48-74.94.06-47.93c0-.73.54-1.12.94-1.07.56,81.38.6,163.08.12,245.11Z"/>
  <polygon class="st68" points="471.68 552.2 471.56 307.09 472.73 307.17 471.68 552.2"/>
  <path class="st102" d="M508.5,315.08l.55,83.97-.44,149.99c0,1.76-.23,2.32-1,3.1l.32-244.34c1.22,2.57.56,4.87.57,7.29Z"/>
  <path class="st144" d="M450.59,299.64v55.45s.04,110.9.04,110.9l-.03,2.1c-.3.87-.64.85-1.02-.01v-169.76c1.03-.37,1.35.77,1.01,1.32Z"/>
  <path class="st170" d="M463.39,552l-.81-.91c-.86.17-1.52,0-1.52-.69-.03-41.51.03-84.12.19-125.62l1.33-.69h1.03s-.23,127.91-.23,127.91Z"/>
  <path class="st124" d="M492.58,552.11l.32-10.04.76-28.91c.02-.73.47-1.08.92-1.07v38.95c-.01,1.04-1.68,1.1-2.01,1.07Z"/>
  <path class="st124" d="M494.58,507.09c-1.58-2.71-1.58-9.29,0-12v12Z"/>
  <path class="st28" d="M642.07,421.3l-125.4.82c-.78.63-1.32-1.04-.79-1.04l126.19.22Z"/>
  <path class="st12" d="M449.58,468.08h1.02s-.09,95.08-.09,95.08c-.35.09-.93-.29-.93-.57v-94.51Z"/>
  <path class="st3" d="M479.57,543.09c-.21,3.34.85,6.85-.77,9.98l-1.23.02c1.71-4.39.86-9.31.97-13.98,1.41.85,1.11,2.56,1.03,3.98Z"/>
  <path class="st79" d="M707.97,535.44c-2.46-.64-2.03-2.18.51-2.23.78-3.38-.78-7.24.85-11.22l.28,40.59c-.2.39-.56.53-.81.54l-.84-27.69Z"/>
  <path class="st49" d="M708.48,533.22l-.51,2.23c-.45,1.93.14,4.17-2.76,6.67-.92-3.9-.76-7.65-.21-12.78.99,1.63,1.9,2.9,3.48,3.88Z"/>
  <rect class="st79" x="708.28" y="503.09" width="1.46" height="13"/>
  <path class="st71" d="M282.59,455.1c-1.34,1.38-1.23,3.39-.9,6.25-1.07-.38-1.8-.77-3.39-.3-.78-2.3-.76-4.23-.75-7.02-1.35.31-1.2,1.39-1.41,2.15l-.96-16.66c-.4-6.89-.32-13.95,0-20.84l.78-17.21c2.12-17.05,4.34-33.48,9.25-49.21.48,1.82.1,3.53.5,4.04.52.67,2.11.9,4.23,1.09-3.66,14.48-6.55,28.68-7.62,43.69l-.99,13.98c-.44,6.29-1.45,11.88.05,18.21l.33,12.71c.09,3.35.74,6.19.87,9.12Z"/>
  <path class="st87" d="M656.88,269.37l-.18-1.41c1.86-.21,4.39-1.98,6.52-1.43,1.91.49,2.79,3.65,2.74,5.43l-.28,11.08c-2.24-.34-3.89-.17-6.19.14l-.91-10.09c-.15-1.67-.72-2.96-1.71-3.71Z"/>
  <path class="st155" d="M655.66,270.12c1.25,4.07,1.95,9.28,2.07,13.82-.98.61-3.04.52-3.63.17s-2.65-10.71-.39-16.14l1.96,2.15Z"/>
  <path class="st52" d="M671.64,279.28c2.9,1.58,5.68,2.64,7.87,1.3,2.24-1.37,3.13-4.18,3.37-8.34,1.79,3.35.88,6.96-2.28,9.38-2.78,2.13-7.81,1.53-8.97-2.34Z"/>
  <path class="st142" d="M864.17,521.58c.32,2.43-1.16,5.29-2,6.86-2.92-1.5-2.38-2.86-1.94-4.23.57-1.79,2.27-3.44,3.94-2.63Z"/>
  <path class="st85" d="M574.31,920.45c-.95.94-2.3,2.24-3.68,2.45l-1.01-.8c-.74-.66.04-1.5.73-2.15l5.31-4.9c3.14,2.98-2.57,3.31-1.35,5.4Z"/>
  <path class="st11" d="M488.43,272.16c.64.67,1,.72,1.2-.25.06-2.77,1.37-1.01,1.47.39-.91,4.62-.6,8.65.48,12.96-12.01.74-24.19,1.07-36.09.27l18.01-.15-.17-14.34c-.01-1.2,1.16-2.2,2.04-2.37.59-.12,1.15.41,1.98,1.4,2.03-2.41,4.28-3.19,7.04-2.34,1.93.59,3.56,2.19,4.02,4.43Z"/>
  <path class="st157" d="M500.88,283.83l-8.31-.9.09-11.81c.02-2.84,2.1-3.99,4.88-4.31l5-.58c-2.59,3.27-3.19,11.74-1.66,17.6Z"/>
  <path class="st21" d="M471.43,284.02c-2.2-1.24-4.36-1.26-6.85-.16.3-5.88.02-11.17-2.23-16.14,3.27-1.35,7.86-1.45,8.77,1.69,1.31,4.53.26,8.85.3,14.6Z"/>
  <path class="st78" d="M488.43,272.16c.4.2,1.38-.14,1.2-.25.25,2.63.65,5.76-1.22,7.93-1.68,1.95-4.05,3.48-6.26,3.19-2.33-.31-5.61-1.78-5.49-5.14,2.65,2.75,5.75,4.07,8.69,2.5s3.71-5.12,3.07-8.22Z"/>
  <path class="st30" d="M502.31,999.44c-3.59,4.08-10.21,5.54-14.86,1.82-2.62-2.09-3.71-5.32-2.99-8.53.59-2.63,2.75-6.07,5.56-7.08l12.28,13.79Z"/>
  <path class="st180" d="M493.47,982.15c-.5-1.62-2.48-3.67-3.76-4.76-.71-2.05-1-5.06.3-7.14.9-1.43,3.61-2.79,6.01-1.64,3.24,1.56,4.01,4.98,3,8.34-.65,2.16-2.94,4.13-5.55,5.2Z"/>
  <path class="st152" d="M312.41,989.44c-3.82.93-7.52.44-11.97.42l5.85-17.13,6.12,16.71Z"/>
  <polygon class="st152" points="616.97 989.68 605.16 989.78 611.03 972.86 616.97 989.68"/>
  <path class="st27" d="M670.66,392.94l-.1,119.62c-.07.27-.48.63-.89.62l-.52-63.82-.85-135.13.09-3.64c.02-.74,2.97-.84,2.97-.13l.08,64.51c0,4.11-2.26,7.62-.2,11.88.72,1.49-.58,3.6-.58,6.1Z"/>
  <path class="st8" d="M682.59,412.1c-.84-5.73-.77-12.94,0-19.01v-82.8c.77-.47,2.29-.44,3.15.05l-.68,120.21-.45,58.08c0,.29-.61.65-.93.54l-.1-75.95c0-.79-.59-1.16-.98-1.11Z"/>
  <path class="st121" d="M682.59,412.1l-.04,135.91c0,2.84.43,4.48,1.99,6.04-.88.22-2.2-.45-2.96-.95v-1c-.87-15.72-.84-32.3-.01-48.01,0-1.54.45-3.92-.21-5.65-1.57-4.13-.06-7.42-.02-11.41l.21-18.93.04-73.9c0-.77.6-1.16.99-1.11v19.01Z"/>
  <path class="st73" d="M656.6,308.93l-.03,130.01c-1,.04-1.82-.85-2.03-1.76v-16.03c1.56-6.11,2.07-13.74-.95-16.05l.06-95.61c0-.7,1.2-1.37,1.53-1.49.5-.19,1.49.05,1.43.94Z"/>
  <path class="st50" d="M699.6,309.97l-.02,106.12v23c-.33,2.66-1.27,2.54-2.05,0l-.47-60.43-.49-65.58c0-1.02.16-2.6.61-3.05s1.81-.09,2.42-.07Z"/>
  <path class="st146" d="M699.58,439.09v111.81c-.29,1.46-1.15,2.19-1.99,2.19l-.05-114h2.05Z"/>
  <path class="st141" d="M681.58,552.09c-.39.06-1-.35-1-1.07v-45.85c0-.72.62-1.14.99-1.08l.02,48.01Z"/>
  <path class="st7" d="M506.29,435.98c-.02,2.95-2.95,3.06-3.88.33l-.26-128.33h3.89s.26,128,.26,128Z"/>
  <polygon class="st143" points="506.29 435.98 506.48 529.19 502.59 529.2 502.4 436.31 506.29 435.98"/>
  <path class="st143" d="M505.58,550.59c0,1.41-1.18,1.96-1.64,2.03-.86.13-1.75-1.1-1.72-2.5l.35-16.34c2.01-.08,2.96,1.45,2.97,3.29l.05,13.52Z"/>
  <path class="st96" d="M476.67,310.09l-.62,106.49-.5,68.04c0,.29-.51.61-.82.53l-.65-80.12-.63-93.77c0-.91,1.1-2.04,1.57-2.12s1.04.6,1.65.95Z"/>
  <path class="st175" d="M462.58,424.09v127c-.67.52-1.64,1.41-3.04.75l.21-132.09c.13-3.71,1.07-5.3,2.81-4.79l.02,9.13Z"/>
  <path class="st80" d="M462.56,414.96c-.61.9-2.81,3.4-2.81,4.79l-.32-109.5c0-.5,2.71-.43,3.17.02l-.04,104.69Z"/>
  <path class="st43" d="M490.55,442.1l.04,3c-.32,2.66-1.26,2.54-2.03,0l.04-3.51-.14-125.35c0-2.08-1.93-6.04,1.19-6.44,3.35,1.62,1.07,6.57,1.07,9.61l-.17,122.69Z"/>
  <path class="st83" d="M490.6,445.1l-.08,107.05c-.6-.1-1.26-.1-1.87,0l-.08-107.05h2.03Z"/>
</svg>